<?xml version="1.0" encoding="utf-8" standalone="no"?>
<!DOCTYPE svg PUBLIC "-//W3C//DTD SVG 1.1//EN"
  "http://www.w3.org/Graphics/SVG/1.1/DTD/svg11.dtd">
<!-- Created with matplotlib (https://matplotlib.org/) -->
<svg height="576pt" version="1.1" viewBox="0 0 864 576" width="864pt" xmlns="http://www.w3.org/2000/svg" xmlns:xlink="http://www.w3.org/1999/xlink">
 <defs>
  <style type="text/css">
*{stroke-linecap:butt;stroke-linejoin:round;white-space:pre;}
  </style>
 </defs>
 <g id="figure_1">
  <g id="patch_1">
   <path d="M 0 576 
L 864 576 
L 864 0 
L 0 0 
z
" style="fill:#ffffff;"/>
  </g>
  <g id="axes_1">
   <g id="matplotlib.axis_1">
    <g id="ytick_1">
     <g id="line2d_1">
      <path clip-path="url(#pf3c50ed5e0)" d="M 108 456.84056 
L 777.6 456.84056 
" style="fill:none;stroke:#4caf50;stroke-linecap:square;stroke-opacity:0.3;stroke-width:0.8;"/>
     </g>
     <g id="line2d_2">
      <defs>
       <path d="M 0 0 
L 3.5 0 
" id="mf5ae0cbd7d" style="stroke:#000000;stroke-width:0.8;"/>
      </defs>
      <g>
       <use style="stroke:#000000;stroke-width:0.8;" x="777.6" xlink:href="#mf5ae0cbd7d" y="456.84056"/>
      </g>
     </g>
     <g id="text_1">
      <!-- 500 -->
      <defs>
       <path d="M 10.796875 72.90625 
L 49.515625 72.90625 
L 49.515625 64.59375 
L 19.828125 64.59375 
L 19.828125 46.734375 
Q 21.96875 47.46875 24.109375 47.828125 
Q 26.265625 48.1875 28.421875 48.1875 
Q 40.625 48.1875 47.75 41.5 
Q 54.890625 34.8125 54.890625 23.390625 
Q 54.890625 11.625 47.5625 5.09375 
Q 40.234375 -1.421875 26.90625 -1.421875 
Q 22.3125 -1.421875 17.546875 -0.640625 
Q 12.796875 0.140625 7.71875 1.703125 
L 7.71875 11.625 
Q 12.109375 9.234375 16.796875 8.0625 
Q 21.484375 6.890625 26.703125 6.890625 
Q 35.15625 6.890625 40.078125 11.328125 
Q 45.015625 15.765625 45.015625 23.390625 
Q 45.015625 31 40.078125 35.4375 
Q 35.15625 39.890625 26.703125 39.890625 
Q 22.75 39.890625 18.8125 39.015625 
Q 14.890625 38.140625 10.796875 36.28125 
z
" id="DejaVuSans-53"/>
       <path d="M 31.78125 66.40625 
Q 24.171875 66.40625 20.328125 58.90625 
Q 16.5 51.421875 16.5 36.375 
Q 16.5 21.390625 20.328125 13.890625 
Q 24.171875 6.390625 31.78125 6.390625 
Q 39.453125 6.390625 43.28125 13.890625 
Q 47.125 21.390625 47.125 36.375 
Q 47.125 51.421875 43.28125 58.90625 
Q 39.453125 66.40625 31.78125 66.40625 
z
M 31.78125 74.21875 
Q 44.046875 74.21875 50.515625 64.515625 
Q 56.984375 54.828125 56.984375 36.375 
Q 56.984375 17.96875 50.515625 8.265625 
Q 44.046875 -1.421875 31.78125 -1.421875 
Q 19.53125 -1.421875 13.0625 8.265625 
Q 6.59375 17.96875 6.59375 36.375 
Q 6.59375 54.828125 13.0625 64.515625 
Q 19.53125 74.21875 31.78125 74.21875 
z
" id="DejaVuSans-48"/>
      </defs>
      <g style="fill:#4caf50;" transform="translate(784.6 460.639779)scale(0.1 -0.1)">
       <use xlink:href="#DejaVuSans-53"/>
       <use x="63.623047" xlink:href="#DejaVuSans-48"/>
       <use x="127.246094" xlink:href="#DejaVuSans-48"/>
      </g>
     </g>
    </g>
    <g id="ytick_2">
     <g id="line2d_3">
      <path clip-path="url(#pf3c50ed5e0)" d="M 108 401.463775 
L 777.6 401.463775 
" style="fill:none;stroke:#4caf50;stroke-linecap:square;stroke-opacity:0.3;stroke-width:0.8;"/>
     </g>
     <g id="line2d_4">
      <g>
       <use style="stroke:#000000;stroke-width:0.8;" x="777.6" xlink:href="#mf5ae0cbd7d" y="401.463775"/>
      </g>
     </g>
     <g id="text_2">
      <!-- 600 -->
      <defs>
       <path d="M 33.015625 40.375 
Q 26.375 40.375 22.484375 35.828125 
Q 18.609375 31.296875 18.609375 23.390625 
Q 18.609375 15.53125 22.484375 10.953125 
Q 26.375 6.390625 33.015625 6.390625 
Q 39.65625 6.390625 43.53125 10.953125 
Q 47.40625 15.53125 47.40625 23.390625 
Q 47.40625 31.296875 43.53125 35.828125 
Q 39.65625 40.375 33.015625 40.375 
z
M 52.59375 71.296875 
L 52.59375 62.3125 
Q 48.875 64.0625 45.09375 64.984375 
Q 41.3125 65.921875 37.59375 65.921875 
Q 27.828125 65.921875 22.671875 59.328125 
Q 17.53125 52.734375 16.796875 39.40625 
Q 19.671875 43.65625 24.015625 45.921875 
Q 28.375 48.1875 33.59375 48.1875 
Q 44.578125 48.1875 50.953125 41.515625 
Q 57.328125 34.859375 57.328125 23.390625 
Q 57.328125 12.15625 50.6875 5.359375 
Q 44.046875 -1.421875 33.015625 -1.421875 
Q 20.359375 -1.421875 13.671875 8.265625 
Q 6.984375 17.96875 6.984375 36.375 
Q 6.984375 53.65625 15.1875 63.9375 
Q 23.390625 74.21875 37.203125 74.21875 
Q 40.921875 74.21875 44.703125 73.484375 
Q 48.484375 72.75 52.59375 71.296875 
z
" id="DejaVuSans-54"/>
      </defs>
      <g style="fill:#4caf50;" transform="translate(784.6 405.262994)scale(0.1 -0.1)">
       <use xlink:href="#DejaVuSans-54"/>
       <use x="63.623047" xlink:href="#DejaVuSans-48"/>
       <use x="127.246094" xlink:href="#DejaVuSans-48"/>
      </g>
     </g>
    </g>
    <g id="ytick_3">
     <g id="line2d_5">
      <path clip-path="url(#pf3c50ed5e0)" d="M 108 346.08699 
L 777.6 346.08699 
" style="fill:none;stroke:#4caf50;stroke-linecap:square;stroke-opacity:0.3;stroke-width:0.8;"/>
     </g>
     <g id="line2d_6">
      <g>
       <use style="stroke:#000000;stroke-width:0.8;" x="777.6" xlink:href="#mf5ae0cbd7d" y="346.08699"/>
      </g>
     </g>
     <g id="text_3">
      <!-- 700 -->
      <defs>
       <path d="M 8.203125 72.90625 
L 55.078125 72.90625 
L 55.078125 68.703125 
L 28.609375 0 
L 18.3125 0 
L 43.21875 64.59375 
L 8.203125 64.59375 
z
" id="DejaVuSans-55"/>
      </defs>
      <g style="fill:#4caf50;" transform="translate(784.6 349.886209)scale(0.1 -0.1)">
       <use xlink:href="#DejaVuSans-55"/>
       <use x="63.623047" xlink:href="#DejaVuSans-48"/>
       <use x="127.246094" xlink:href="#DejaVuSans-48"/>
      </g>
     </g>
    </g>
    <g id="ytick_4">
     <g id="line2d_7">
      <path clip-path="url(#pf3c50ed5e0)" d="M 108 290.710205 
L 777.6 290.710205 
" style="fill:none;stroke:#4caf50;stroke-linecap:square;stroke-opacity:0.3;stroke-width:0.8;"/>
     </g>
     <g id="line2d_8">
      <g>
       <use style="stroke:#000000;stroke-width:0.8;" x="777.6" xlink:href="#mf5ae0cbd7d" y="290.710205"/>
      </g>
     </g>
     <g id="text_4">
      <!-- 800 -->
      <defs>
       <path d="M 31.78125 34.625 
Q 24.75 34.625 20.71875 30.859375 
Q 16.703125 27.09375 16.703125 20.515625 
Q 16.703125 13.921875 20.71875 10.15625 
Q 24.75 6.390625 31.78125 6.390625 
Q 38.8125 6.390625 42.859375 10.171875 
Q 46.921875 13.96875 46.921875 20.515625 
Q 46.921875 27.09375 42.890625 30.859375 
Q 38.875 34.625 31.78125 34.625 
z
M 21.921875 38.8125 
Q 15.578125 40.375 12.03125 44.71875 
Q 8.5 49.078125 8.5 55.328125 
Q 8.5 64.0625 14.71875 69.140625 
Q 20.953125 74.21875 31.78125 74.21875 
Q 42.671875 74.21875 48.875 69.140625 
Q 55.078125 64.0625 55.078125 55.328125 
Q 55.078125 49.078125 51.53125 44.71875 
Q 48 40.375 41.703125 38.8125 
Q 48.828125 37.15625 52.796875 32.3125 
Q 56.78125 27.484375 56.78125 20.515625 
Q 56.78125 9.90625 50.3125 4.234375 
Q 43.84375 -1.421875 31.78125 -1.421875 
Q 19.734375 -1.421875 13.25 4.234375 
Q 6.78125 9.90625 6.78125 20.515625 
Q 6.78125 27.484375 10.78125 32.3125 
Q 14.796875 37.15625 21.921875 38.8125 
z
M 18.3125 54.390625 
Q 18.3125 48.734375 21.84375 45.5625 
Q 25.390625 42.390625 31.78125 42.390625 
Q 38.140625 42.390625 41.71875 45.5625 
Q 45.3125 48.734375 45.3125 54.390625 
Q 45.3125 60.0625 41.71875 63.234375 
Q 38.140625 66.40625 31.78125 66.40625 
Q 25.390625 66.40625 21.84375 63.234375 
Q 18.3125 60.0625 18.3125 54.390625 
z
" id="DejaVuSans-56"/>
      </defs>
      <g style="fill:#4caf50;" transform="translate(784.6 294.509424)scale(0.1 -0.1)">
       <use xlink:href="#DejaVuSans-56"/>
       <use x="63.623047" xlink:href="#DejaVuSans-48"/>
       <use x="127.246094" xlink:href="#DejaVuSans-48"/>
      </g>
     </g>
    </g>
    <g id="ytick_5">
     <g id="line2d_9">
      <path clip-path="url(#pf3c50ed5e0)" d="M 108 235.33342 
L 777.6 235.33342 
" style="fill:none;stroke:#4caf50;stroke-linecap:square;stroke-opacity:0.3;stroke-width:0.8;"/>
     </g>
     <g id="line2d_10">
      <g>
       <use style="stroke:#000000;stroke-width:0.8;" x="777.6" xlink:href="#mf5ae0cbd7d" y="235.33342"/>
      </g>
     </g>
     <g id="text_5">
      <!-- 900 -->
      <defs>
       <path d="M 10.984375 1.515625 
L 10.984375 10.5 
Q 14.703125 8.734375 18.5 7.8125 
Q 22.3125 6.890625 25.984375 6.890625 
Q 35.75 6.890625 40.890625 13.453125 
Q 46.046875 20.015625 46.78125 33.40625 
Q 43.953125 29.203125 39.59375 26.953125 
Q 35.25 24.703125 29.984375 24.703125 
Q 19.046875 24.703125 12.671875 31.3125 
Q 6.296875 37.9375 6.296875 49.421875 
Q 6.296875 60.640625 12.9375 67.421875 
Q 19.578125 74.21875 30.609375 74.21875 
Q 43.265625 74.21875 49.921875 64.515625 
Q 56.59375 54.828125 56.59375 36.375 
Q 56.59375 19.140625 48.40625 8.859375 
Q 40.234375 -1.421875 26.421875 -1.421875 
Q 22.703125 -1.421875 18.890625 -0.6875 
Q 15.09375 0.046875 10.984375 1.515625 
z
M 30.609375 32.421875 
Q 37.25 32.421875 41.125 36.953125 
Q 45.015625 41.5 45.015625 49.421875 
Q 45.015625 57.28125 41.125 61.84375 
Q 37.25 66.40625 30.609375 66.40625 
Q 23.96875 66.40625 20.09375 61.84375 
Q 16.21875 57.28125 16.21875 49.421875 
Q 16.21875 41.5 20.09375 36.953125 
Q 23.96875 32.421875 30.609375 32.421875 
z
" id="DejaVuSans-57"/>
      </defs>
      <g style="fill:#4caf50;" transform="translate(784.6 239.132639)scale(0.1 -0.1)">
       <use xlink:href="#DejaVuSans-57"/>
       <use x="63.623047" xlink:href="#DejaVuSans-48"/>
       <use x="127.246094" xlink:href="#DejaVuSans-48"/>
      </g>
     </g>
    </g>
    <g id="ytick_6">
     <g id="line2d_11">
      <path clip-path="url(#pf3c50ed5e0)" d="M 108 179.956635 
L 777.6 179.956635 
" style="fill:none;stroke:#4caf50;stroke-linecap:square;stroke-opacity:0.3;stroke-width:0.8;"/>
     </g>
     <g id="line2d_12">
      <g>
       <use style="stroke:#000000;stroke-width:0.8;" x="777.6" xlink:href="#mf5ae0cbd7d" y="179.956635"/>
      </g>
     </g>
     <g id="text_6">
      <!-- 1000 -->
      <defs>
       <path d="M 12.40625 8.296875 
L 28.515625 8.296875 
L 28.515625 63.921875 
L 10.984375 60.40625 
L 10.984375 69.390625 
L 28.421875 72.90625 
L 38.28125 72.90625 
L 38.28125 8.296875 
L 54.390625 8.296875 
L 54.390625 0 
L 12.40625 0 
z
" id="DejaVuSans-49"/>
      </defs>
      <g style="fill:#4caf50;" transform="translate(784.6 183.755854)scale(0.1 -0.1)">
       <use xlink:href="#DejaVuSans-49"/>
       <use x="63.623047" xlink:href="#DejaVuSans-48"/>
       <use x="127.246094" xlink:href="#DejaVuSans-48"/>
       <use x="190.869141" xlink:href="#DejaVuSans-48"/>
      </g>
     </g>
    </g>
    <g id="ytick_7">
     <g id="line2d_13">
      <path clip-path="url(#pf3c50ed5e0)" d="M 108 124.57985 
L 777.6 124.57985 
" style="fill:none;stroke:#4caf50;stroke-linecap:square;stroke-opacity:0.3;stroke-width:0.8;"/>
     </g>
     <g id="line2d_14">
      <g>
       <use style="stroke:#000000;stroke-width:0.8;" x="777.6" xlink:href="#mf5ae0cbd7d" y="124.57985"/>
      </g>
     </g>
     <g id="text_7">
      <!-- 1100 -->
      <g style="fill:#4caf50;" transform="translate(784.6 128.379069)scale(0.1 -0.1)">
       <use xlink:href="#DejaVuSans-49"/>
       <use x="63.623047" xlink:href="#DejaVuSans-49"/>
       <use x="127.246094" xlink:href="#DejaVuSans-48"/>
       <use x="190.869141" xlink:href="#DejaVuSans-48"/>
      </g>
     </g>
    </g>
    <g id="ytick_8">
     <g id="line2d_15">
      <path clip-path="url(#pf3c50ed5e0)" d="M 108 69.203065 
L 777.6 69.203065 
" style="fill:none;stroke:#4caf50;stroke-linecap:square;stroke-opacity:0.3;stroke-width:0.8;"/>
     </g>
     <g id="line2d_16">
      <g>
       <use style="stroke:#000000;stroke-width:0.8;" x="777.6" xlink:href="#mf5ae0cbd7d" y="69.203065"/>
      </g>
     </g>
     <g id="text_8">
      <!-- 1200 -->
      <defs>
       <path d="M 19.1875 8.296875 
L 53.609375 8.296875 
L 53.609375 0 
L 7.328125 0 
L 7.328125 8.296875 
Q 12.9375 14.109375 22.625 23.890625 
Q 32.328125 33.6875 34.8125 36.53125 
Q 39.546875 41.84375 41.421875 45.53125 
Q 43.3125 49.21875 43.3125 52.78125 
Q 43.3125 58.59375 39.234375 62.25 
Q 35.15625 65.921875 28.609375 65.921875 
Q 23.96875 65.921875 18.8125 64.3125 
Q 13.671875 62.703125 7.8125 59.421875 
L 7.8125 69.390625 
Q 13.765625 71.78125 18.9375 73 
Q 24.125 74.21875 28.421875 74.21875 
Q 39.75 74.21875 46.484375 68.546875 
Q 53.21875 62.890625 53.21875 53.421875 
Q 53.21875 48.921875 51.53125 44.890625 
Q 49.859375 40.875 45.40625 35.40625 
Q 44.1875 33.984375 37.640625 27.21875 
Q 31.109375 20.453125 19.1875 8.296875 
z
" id="DejaVuSans-50"/>
      </defs>
      <g style="fill:#4caf50;" transform="translate(784.6 73.002284)scale(0.1 -0.1)">
       <use xlink:href="#DejaVuSans-49"/>
       <use x="63.623047" xlink:href="#DejaVuSans-50"/>
       <use x="127.246094" xlink:href="#DejaVuSans-48"/>
       <use x="190.869141" xlink:href="#DejaVuSans-48"/>
      </g>
     </g>
    </g>
    <g id="text_9">
     <!-- USD -->
     <defs>
      <path d="M 8.6875 72.90625 
L 18.609375 72.90625 
L 18.609375 28.609375 
Q 18.609375 16.890625 22.84375 11.734375 
Q 27.09375 6.59375 36.625 6.59375 
Q 46.09375 6.59375 50.34375 11.734375 
Q 54.59375 16.890625 54.59375 28.609375 
L 54.59375 72.90625 
L 64.5 72.90625 
L 64.5 27.390625 
Q 64.5 13.140625 57.4375 5.859375 
Q 50.390625 -1.421875 36.625 -1.421875 
Q 22.796875 -1.421875 15.734375 5.859375 
Q 8.6875 13.140625 8.6875 27.390625 
z
" id="DejaVuSans-85"/>
      <path d="M 53.515625 70.515625 
L 53.515625 60.890625 
Q 47.90625 63.578125 42.921875 64.890625 
Q 37.9375 66.21875 33.296875 66.21875 
Q 25.25 66.21875 20.875 63.09375 
Q 16.5 59.96875 16.5 54.203125 
Q 16.5 49.359375 19.40625 46.890625 
Q 22.3125 44.4375 30.421875 42.921875 
L 36.375 41.703125 
Q 47.40625 39.59375 52.65625 34.296875 
Q 57.90625 29 57.90625 20.125 
Q 57.90625 9.515625 50.796875 4.046875 
Q 43.703125 -1.421875 29.984375 -1.421875 
Q 24.8125 -1.421875 18.96875 -0.25 
Q 13.140625 0.921875 6.890625 3.21875 
L 6.890625 13.375 
Q 12.890625 10.015625 18.65625 8.296875 
Q 24.421875 6.59375 29.984375 6.59375 
Q 38.421875 6.59375 43.015625 9.90625 
Q 47.609375 13.234375 47.609375 19.390625 
Q 47.609375 24.75 44.3125 27.78125 
Q 41.015625 30.8125 33.5 32.328125 
L 27.484375 33.5 
Q 16.453125 35.6875 11.515625 40.375 
Q 6.59375 45.0625 6.59375 53.421875 
Q 6.59375 63.09375 13.40625 68.65625 
Q 20.21875 74.21875 32.171875 74.21875 
Q 37.3125 74.21875 42.625 73.28125 
Q 47.953125 72.359375 53.515625 70.515625 
z
" id="DejaVuSans-83"/>
      <path d="M 19.671875 64.796875 
L 19.671875 8.109375 
L 31.59375 8.109375 
Q 46.6875 8.109375 53.6875 14.9375 
Q 60.6875 21.78125 60.6875 36.53125 
Q 60.6875 51.171875 53.6875 57.984375 
Q 46.6875 64.796875 31.59375 64.796875 
z
M 9.8125 72.90625 
L 30.078125 72.90625 
Q 51.265625 72.90625 61.171875 64.09375 
Q 71.09375 55.28125 71.09375 36.53125 
Q 71.09375 17.671875 61.125 8.828125 
Q 51.171875 0 30.078125 0 
L 9.8125 0 
z
" id="DejaVuSans-68"/>
     </defs>
     <g style="fill:#4caf50;" transform="translate(821.648438 275.643594)rotate(-90)scale(0.1 -0.1)">
      <use xlink:href="#DejaVuSans-85"/>
      <use x="73.193359" xlink:href="#DejaVuSans-83"/>
      <use x="136.669922" xlink:href="#DejaVuSans-68"/>
     </g>
    </g>
   </g>
   <g id="line2d_17">
    <path clip-path="url(#pf3c50ed5e0)" d="M 138.436364 122.364779 
L 138.436364 102.982904 
L 146.812105 102.982904 
L 146.812105 114.612029 
L 154.917661 114.612029 
L 154.917661 97.998993 
L 163.293403 97.998993 
L 163.293403 86.923636 
L 171.398959 86.923636 
L 171.398959 115.165797 
L 179.7747 115.165797 
L 179.7747 140.08535 
L 188.150442 140.08535 
L 188.150442 174.418957 
L 196.255998 174.418957 
L 196.255998 219.82792 
L 204.631739 219.82792 
L 204.631739 310.645848 
L 212.737296 310.645848 
L 212.737296 358.823651 
L 221.113037 358.823651 
L 221.113037 415.307971 
L 229.488779 415.307971 
L 229.488779 377.09799 
L 237.053964 377.09799 
L 237.053964 352.178436 
L 245.429706 352.178436 
L 245.429706 303.446866 
L 253.535262 303.446866 
L 253.535262 317.84483 
L 261.911004 317.84483 
L 261.911004 333.904097 
L 270.01656 333.904097 
L 270.01656 373.775382 
L 278.392301 373.775382 
L 278.392301 392.603489 
L 286.768043 392.603489 
L 286.768043 395.372329 
L 294.873599 395.372329 
L 294.873599 388.173347 
L 303.24934 388.173347 
L 303.24934 401.463775 
L 311.354897 401.463775 
L 311.354897 433.58231 
L 319.730638 433.58231 
L 319.730638 442.996364 
L 328.106379 442.996364 
L 328.106379 433.58231 
L 335.94175 433.58231 
L 335.94175 325.59758 
L 344.317492 325.59758 
L 344.317492 305.108169 
L 352.423048 305.108169 
L 352.423048 320.059901 
L 360.798789 320.059901 
L 360.798789 301.231794 
L 368.904346 301.231794 
L 368.904346 315.07599 
L 377.280087 315.07599 
L 377.280087 310.09208 
L 385.655829 310.09208 
L 385.655829 293.479044 
L 402.137126 293.479044 
L 402.137126 299.570491 
L 410.242682 299.570491 
L 410.242682 281.296152 
L 418.618424 281.296152 
L 418.618424 272.989634 
L 426.994165 272.989634 
L 426.994165 259.145438 
L 434.559351 259.145438 
L 434.559351 242.532402 
L 442.935093 242.532402 
L 442.935093 247.516313 
L 451.040649 247.516313 
L 451.040649 244.747473 
L 459.41639 244.747473 
L 459.41639 266.34442 
L 467.521946 266.34442 
L 467.521946 274.09717 
L 475.897688 274.09717 
L 475.897688 254.161527 
L 484.273429 254.161527 
L 484.273429 255.269063 
L 492.378986 255.269063 
L 492.378986 257.484134 
L 500.754727 257.484134 
L 500.754727 261.360509 
L 508.860283 261.360509 
L 508.860283 251.392688 
L 517.236025 251.392688 
L 517.236025 241.978634 
L 525.611766 241.978634 
L 525.611766 246.408777 
L 533.176952 246.408777 
L 533.176952 156.698385 
L 541.552693 156.698385 
L 541.552693 208.198795 
L 549.65825 208.198795 
L 549.65825 199.892278 
L 558.033991 199.892278 
L 558.033991 206.537492 
L 566.139547 206.537492 
L 566.139547 204.876188 
L 574.515289 204.876188 
L 574.515289 244.747473 
L 582.89103 244.747473 
L 582.89103 227.026902 
L 590.996586 227.026902 
L 590.996586 228.134438 
L 599.372328 228.134438 
L 599.372328 236.440956 
L 607.477884 236.440956 
L 607.477884 256.376598 
L 615.853625 256.376598 
L 615.853625 226.473134 
L 624.229367 226.473134 
L 624.229367 229.241974 
L 631.794553 229.241974 
L 631.794553 227.58067 
L 640.170294 227.58067 
L 640.170294 221.489224 
L 648.27585 221.489224 
L 648.27585 225.365599 
L 656.651592 225.365599 
L 656.651592 205.983724 
L 664.757148 205.983724 
L 664.757148 214.290242 
L 673.132889 214.290242 
L 673.132889 235.33342 
L 681.508631 235.33342 
L 681.508631 224.258063 
L 689.614187 224.258063 
L 689.614187 213.182706 
L 697.989929 213.182706 
L 697.989929 217.059081 
L 706.095485 217.059081 
L 706.095485 198.230974 
L 714.471226 198.230974 
L 714.471226 212.07517 
L 722.846968 212.07517 
L 722.846968 238.102259 
L 730.682339 238.102259 
L 730.682339 313.414687 
L 739.05808 313.414687 
L 739.05808 284.064991 
L 747.163636 284.064991 
L 747.163636 284.064991 
" style="fill:none;stroke:#4caf50;stroke-linecap:square;stroke-width:1.5;"/>
   </g>
   <g id="patch_2">
    <path d="M 108 460.8 
L 108 69.12 
" style="fill:none;opacity:0.3;stroke:#000000;stroke-linecap:square;stroke-linejoin:miter;stroke-width:0.8;"/>
   </g>
   <g id="patch_3">
    <path d="M 777.6 460.8 
L 777.6 69.12 
" style="fill:none;opacity:0;"/>
   </g>
   <g id="patch_4">
    <path d="M 108 460.8 
L 777.6 460.8 
" style="fill:none;opacity:0.3;stroke:#000000;stroke-linecap:square;stroke-linejoin:miter;stroke-width:0.8;"/>
   </g>
   <g id="patch_5">
    <path d="M 108 69.12 
L 777.6 69.12 
" style="fill:none;opacity:0;"/>
   </g>
   <g id="legend_1">
    <g id="patch_6">
     <path d="M 655.084375 455.8 
L 770.6 455.8 
Q 772.6 455.8 772.6 453.8 
L 772.6 440.121875 
Q 772.6 438.121875 770.6 438.121875 
L 655.084375 438.121875 
Q 653.084375 438.121875 653.084375 440.121875 
L 653.084375 453.8 
Q 653.084375 455.8 655.084375 455.8 
z
" style="fill:#ffffff;opacity:0.8;stroke:#cccccc;stroke-linejoin:miter;"/>
    </g>
    <g id="line2d_18">
     <path d="M 657.084375 446.220312 
L 677.084375 446.220312 
" style="fill:none;stroke:#4caf50;stroke-linecap:square;stroke-width:1.5;"/>
    </g>
    <g id="line2d_19"/>
    <g id="text_10">
     <!-- Зарплата в USD -->
     <defs>
      <path d="M 28.5625 74.21875 
Q 40.578125 74.21875 48.1875 69.109375 
Q 55.8125 64.015625 55.8125 55.328125 
Q 55.8125 49.265625 52.34375 45.09375 
Q 48.875 40.921875 42.484375 39.3125 
Q 49.5625 37.796875 53.53125 33 
Q 57.515625 28.21875 57.515625 21.1875 
Q 57.515625 9.96875 48.84375 4.265625 
Q 40.1875 -1.421875 28.5625 -1.421875 
Q 22.609375 -1.421875 15.671875 0.1875 
Q 8.734375 1.8125 6.59375 3.171875 
L 6.59375 13.328125 
Q 14.0625 8.984375 18.1875 7.9375 
Q 22.3125 6.890625 28.375 6.890625 
Q 37.546875 6.890625 42.625 10.40625 
Q 47.703125 13.921875 47.703125 21.1875 
Q 47.703125 27.640625 43.1875 31.265625 
Q 38.671875 34.90625 29.15625 34.90625 
L 19.1875 34.90625 
L 19.1875 43.015625 
L 29.546875 43.015625 
Q 38.28125 43.015625 42.140625 45.921875 
Q 46 48.828125 46 54.296875 
Q 46 59.90625 42.015625 62.90625 
Q 38.03125 65.921875 28.375 65.921875 
Q 21.828125 65.921875 19.578125 65.328125 
Q 17.328125 64.75 7.328125 60.984375 
L 7.328125 70.609375 
Q 12.84375 72.5625 18.59375 73.390625 
Q 24.359375 74.21875 28.5625 74.21875 
z
" id="DejaVuSans-1047"/>
      <path d="M 34.28125 27.484375 
Q 23.390625 27.484375 19.1875 25 
Q 14.984375 22.515625 14.984375 16.5 
Q 14.984375 11.71875 18.140625 8.90625 
Q 21.296875 6.109375 26.703125 6.109375 
Q 34.1875 6.109375 38.703125 11.40625 
Q 43.21875 16.703125 43.21875 25.484375 
L 43.21875 27.484375 
z
M 52.203125 31.203125 
L 52.203125 0 
L 43.21875 0 
L 43.21875 8.296875 
Q 40.140625 3.328125 35.546875 0.953125 
Q 30.953125 -1.421875 24.3125 -1.421875 
Q 15.921875 -1.421875 10.953125 3.296875 
Q 6 8.015625 6 15.921875 
Q 6 25.140625 12.171875 29.828125 
Q 18.359375 34.515625 30.609375 34.515625 
L 43.21875 34.515625 
L 43.21875 35.40625 
Q 43.21875 41.609375 39.140625 45 
Q 35.0625 48.390625 27.6875 48.390625 
Q 23 48.390625 18.546875 47.265625 
Q 14.109375 46.140625 10.015625 43.890625 
L 10.015625 52.203125 
Q 14.9375 54.109375 19.578125 55.046875 
Q 24.21875 56 28.609375 56 
Q 40.484375 56 46.34375 49.84375 
Q 52.203125 43.703125 52.203125 31.203125 
z
" id="DejaVuSans-1072"/>
      <path d="M 18.109375 8.203125 
L 18.109375 -20.796875 
L 9.078125 -20.796875 
L 9.078125 54.6875 
L 18.109375 54.6875 
L 18.109375 46.390625 
Q 20.953125 51.265625 25.265625 53.625 
Q 29.59375 56 35.59375 56 
Q 45.5625 56 51.78125 48.09375 
Q 58.015625 40.1875 58.015625 27.296875 
Q 58.015625 14.40625 51.78125 6.484375 
Q 45.5625 -1.421875 35.59375 -1.421875 
Q 29.59375 -1.421875 25.265625 0.953125 
Q 20.953125 3.328125 18.109375 8.203125 
z
M 48.6875 27.296875 
Q 48.6875 37.203125 44.609375 42.84375 
Q 40.53125 48.484375 33.40625 48.484375 
Q 26.265625 48.484375 22.1875 42.84375 
Q 18.109375 37.203125 18.109375 27.296875 
Q 18.109375 17.390625 22.1875 11.75 
Q 26.265625 6.109375 33.40625 6.109375 
Q 40.53125 6.109375 44.609375 11.75 
Q 48.6875 17.390625 48.6875 27.296875 
z
" id="DejaVuSans-1088"/>
      <path d="M 56.296875 54.6875 
L 56.296875 0 
L 47.265625 0 
L 47.265625 47.515625 
L 18.109375 47.515625 
L 18.109375 0 
L 9.078125 0 
L 9.078125 54.6875 
z
" id="DejaVuSans-1087"/>
      <path d="M 3.71875 0 
L 3.71875 7.46875 
Q 12.59375 8.84375 15.328125 14.984375 
Q 18.65625 23.640625 18.65625 45.75 
L 18.65625 54.6875 
L 55.609375 54.6875 
L 55.609375 0 
L 46.625 0 
L 46.625 47.515625 
L 27.640625 47.515625 
L 27.640625 42.09375 
Q 27.640625 21 23.34375 11.53125 
Q 18.75 1.421875 3.71875 0 
z
" id="DejaVuSans-1083"/>
      <path d="M 2.9375 54.6875 
L 55.328125 54.6875 
L 55.328125 47.515625 
L 33.546875 47.515625 
L 33.546875 0 
L 24.703125 0 
L 24.703125 47.515625 
L 2.9375 47.515625 
z
" id="DejaVuSans-1090"/>
      <path id="DejaVuSans-32"/>
      <path d="M 18.0625 25.203125 
L 18.0625 7.171875 
L 30.859375 7.171875 
Q 37.015625 7.171875 40.234375 9.484375 
Q 43.453125 11.8125 43.453125 16.21875 
Q 43.453125 20.609375 40.234375 22.90625 
Q 37.015625 25.203125 30.859375 25.203125 
z
M 18.0625 47.515625 
L 18.0625 32.375 
L 29.890625 32.375 
Q 34.96875 32.375 38.1875 34.390625 
Q 41.40625 36.421875 41.40625 40.046875 
Q 41.40625 43.65625 38.1875 45.578125 
Q 34.96875 47.515625 29.890625 47.515625 
z
M 9.078125 54.6875 
L 30.46875 54.6875 
Q 40.09375 54.6875 45.265625 51.171875 
Q 50.4375 47.65625 50.4375 41.15625 
Q 50.4375 36.140625 47.796875 33.171875 
Q 45.171875 30.21875 39.984375 29.5 
Q 46.1875 28.328125 49.609375 24.609375 
Q 53.03125 20.90625 53.03125 15.328125 
Q 53.03125 8.015625 47.390625 4 
Q 41.75 0 31.296875 0 
L 9.078125 0 
z
" id="DejaVuSans-1074"/>
     </defs>
     <g transform="translate(685.084375 449.720312)scale(0.1 -0.1)">
      <use xlink:href="#DejaVuSans-1047"/>
      <use x="64.111328" xlink:href="#DejaVuSans-1072"/>
      <use x="125.390625" xlink:href="#DejaVuSans-1088"/>
      <use x="188.867188" xlink:href="#DejaVuSans-1087"/>
      <use x="254.248047" xlink:href="#DejaVuSans-1083"/>
      <use x="318.164062" xlink:href="#DejaVuSans-1072"/>
      <use x="379.443359" xlink:href="#DejaVuSans-1090"/>
      <use x="437.695312" xlink:href="#DejaVuSans-1072"/>
      <use x="498.974609" xlink:href="#DejaVuSans-32"/>
      <use x="530.761719" xlink:href="#DejaVuSans-1074"/>
      <use x="589.697266" xlink:href="#DejaVuSans-32"/>
      <use x="621.484375" xlink:href="#DejaVuSans-85"/>
      <use x="694.677734" xlink:href="#DejaVuSans-83"/>
      <use x="758.154297" xlink:href="#DejaVuSans-68"/>
     </g>
    </g>
   </g>
  </g>
  <g id="axes_2">
   <g id="PathCollection_1">
    <defs>
     <path d="M 5 0 
L 0 -7.5 
L -5 -0 
" id="mb8b1bbcbc9" style="stroke:#037149;stroke-width:1.5;"/>
    </defs>
    <g clip-path="url(#pf3c50ed5e0)">
     <use style="fill:#037149;stroke:#037149;stroke-width:1.5;" x="335.94175" xlink:href="#mb8b1bbcbc9" y="338.723961"/>
     <use style="fill:#037149;stroke:#037149;stroke-width:1.5;" x="533.176952" xlink:href="#mb8b1bbcbc9" y="212.823799"/>
    </g>
   </g>
   <g id="PathCollection_2"/>
   <g id="matplotlib.axis_2">
    <g id="xtick_1">
     <g id="line2d_20">
      <path clip-path="url(#pf3c50ed5e0)" d="M 122.495436 460.8 
L 122.495436 69.12 
" style="fill:none;stroke:#b0b0b0;stroke-linecap:square;stroke-width:0.8;"/>
     </g>
     <g id="line2d_21">
      <defs>
       <path d="M 0 0 
L 0 3.5 
" id="m8a337327e2" style="stroke:#000000;stroke-width:0.8;"/>
      </defs>
      <g>
       <use style="stroke:#000000;stroke-width:0.8;" x="122.495436" xlink:href="#m8a337327e2" y="460.8"/>
      </g>
     </g>
     <g id="text_11">
      <!-- 2014 -->
      <defs>
       <path d="M 37.796875 64.3125 
L 12.890625 25.390625 
L 37.796875 25.390625 
z
M 35.203125 72.90625 
L 47.609375 72.90625 
L 47.609375 25.390625 
L 58.015625 25.390625 
L 58.015625 17.1875 
L 47.609375 17.1875 
L 47.609375 0 
L 37.796875 0 
L 37.796875 17.1875 
L 4.890625 17.1875 
L 4.890625 26.703125 
z
" id="DejaVuSans-52"/>
      </defs>
      <g transform="translate(99.415246 487.10544)rotate(-30)scale(0.1 -0.1)">
       <use xlink:href="#DejaVuSans-50"/>
       <use x="63.623047" xlink:href="#DejaVuSans-48"/>
       <use x="127.246094" xlink:href="#DejaVuSans-49"/>
       <use x="190.869141" xlink:href="#DejaVuSans-52"/>
      </g>
     </g>
    </g>
    <g id="xtick_2">
     <g id="line2d_22">
      <path clip-path="url(#pf3c50ed5e0)" d="M 221.113037 460.8 
L 221.113037 69.12 
" style="fill:none;stroke:#b0b0b0;stroke-linecap:square;stroke-width:0.8;"/>
     </g>
     <g id="line2d_23">
      <g>
       <use style="stroke:#000000;stroke-width:0.8;" x="221.113037" xlink:href="#m8a337327e2" y="460.8"/>
      </g>
     </g>
     <g id="text_12">
      <!-- 2015 -->
      <g transform="translate(198.032847 487.10544)rotate(-30)scale(0.1 -0.1)">
       <use xlink:href="#DejaVuSans-50"/>
       <use x="63.623047" xlink:href="#DejaVuSans-48"/>
       <use x="127.246094" xlink:href="#DejaVuSans-49"/>
       <use x="190.869141" xlink:href="#DejaVuSans-53"/>
      </g>
     </g>
    </g>
    <g id="xtick_3">
     <g id="line2d_24">
      <path clip-path="url(#pf3c50ed5e0)" d="M 319.730638 460.8 
L 319.730638 69.12 
" style="fill:none;stroke:#b0b0b0;stroke-linecap:square;stroke-width:0.8;"/>
     </g>
     <g id="line2d_25">
      <g>
       <use style="stroke:#000000;stroke-width:0.8;" x="319.730638" xlink:href="#m8a337327e2" y="460.8"/>
      </g>
     </g>
     <g id="text_13">
      <!-- 2016 -->
      <g transform="translate(296.650448 487.10544)rotate(-30)scale(0.1 -0.1)">
       <use xlink:href="#DejaVuSans-50"/>
       <use x="63.623047" xlink:href="#DejaVuSans-48"/>
       <use x="127.246094" xlink:href="#DejaVuSans-49"/>
       <use x="190.869141" xlink:href="#DejaVuSans-54"/>
      </g>
     </g>
    </g>
    <g id="xtick_4">
     <g id="line2d_26">
      <path clip-path="url(#pf3c50ed5e0)" d="M 418.618424 460.8 
L 418.618424 69.12 
" style="fill:none;stroke:#b0b0b0;stroke-linecap:square;stroke-width:0.8;"/>
     </g>
     <g id="line2d_27">
      <g>
       <use style="stroke:#000000;stroke-width:0.8;" x="418.618424" xlink:href="#m8a337327e2" y="460.8"/>
      </g>
     </g>
     <g id="text_14">
      <!-- 2017 -->
      <g transform="translate(395.538234 487.10544)rotate(-30)scale(0.1 -0.1)">
       <use xlink:href="#DejaVuSans-50"/>
       <use x="63.623047" xlink:href="#DejaVuSans-48"/>
       <use x="127.246094" xlink:href="#DejaVuSans-49"/>
       <use x="190.869141" xlink:href="#DejaVuSans-55"/>
      </g>
     </g>
    </g>
    <g id="xtick_5">
     <g id="line2d_28">
      <path clip-path="url(#pf3c50ed5e0)" d="M 517.236025 460.8 
L 517.236025 69.12 
" style="fill:none;stroke:#b0b0b0;stroke-linecap:square;stroke-width:0.8;"/>
     </g>
     <g id="line2d_29">
      <g>
       <use style="stroke:#000000;stroke-width:0.8;" x="517.236025" xlink:href="#m8a337327e2" y="460.8"/>
      </g>
     </g>
     <g id="text_15">
      <!-- 2018 -->
      <g transform="translate(494.155834 487.10544)rotate(-30)scale(0.1 -0.1)">
       <use xlink:href="#DejaVuSans-50"/>
       <use x="63.623047" xlink:href="#DejaVuSans-48"/>
       <use x="127.246094" xlink:href="#DejaVuSans-49"/>
       <use x="190.869141" xlink:href="#DejaVuSans-56"/>
      </g>
     </g>
    </g>
    <g id="xtick_6">
     <g id="line2d_30">
      <path clip-path="url(#pf3c50ed5e0)" d="M 615.853625 460.8 
L 615.853625 69.12 
" style="fill:none;stroke:#b0b0b0;stroke-linecap:square;stroke-width:0.8;"/>
     </g>
     <g id="line2d_31">
      <g>
       <use style="stroke:#000000;stroke-width:0.8;" x="615.853625" xlink:href="#m8a337327e2" y="460.8"/>
      </g>
     </g>
     <g id="text_16">
      <!-- 2019 -->
      <g transform="translate(592.773435 487.10544)rotate(-30)scale(0.1 -0.1)">
       <use xlink:href="#DejaVuSans-50"/>
       <use x="63.623047" xlink:href="#DejaVuSans-48"/>
       <use x="127.246094" xlink:href="#DejaVuSans-49"/>
       <use x="190.869141" xlink:href="#DejaVuSans-57"/>
      </g>
     </g>
    </g>
    <g id="xtick_7">
     <g id="line2d_32">
      <path clip-path="url(#pf3c50ed5e0)" d="M 714.471226 460.8 
L 714.471226 69.12 
" style="fill:none;stroke:#b0b0b0;stroke-linecap:square;stroke-width:0.8;"/>
     </g>
     <g id="line2d_33">
      <g>
       <use style="stroke:#000000;stroke-width:0.8;" x="714.471226" xlink:href="#m8a337327e2" y="460.8"/>
      </g>
     </g>
     <g id="text_17">
      <!-- 2020 -->
      <g transform="translate(691.391036 487.10544)rotate(-30)scale(0.1 -0.1)">
       <use xlink:href="#DejaVuSans-50"/>
       <use x="63.623047" xlink:href="#DejaVuSans-48"/>
       <use x="127.246094" xlink:href="#DejaVuSans-50"/>
       <use x="190.869141" xlink:href="#DejaVuSans-48"/>
      </g>
     </g>
    </g>
    <g id="text_18">
     <!-- Месяц -->
     <defs>
      <path d="M 9.8125 72.90625 
L 24.515625 72.90625 
L 43.109375 23.296875 
L 61.8125 72.90625 
L 76.515625 72.90625 
L 76.515625 0 
L 66.890625 0 
L 66.890625 64.015625 
L 48.09375 14.015625 
L 38.1875 14.015625 
L 19.390625 64.015625 
L 19.390625 0 
L 9.8125 0 
z
" id="DejaVuSans-1052"/>
      <path d="M 56.203125 29.59375 
L 56.203125 25.203125 
L 14.890625 25.203125 
Q 15.484375 15.921875 20.484375 11.0625 
Q 25.484375 6.203125 34.421875 6.203125 
Q 39.59375 6.203125 44.453125 7.46875 
Q 49.3125 8.734375 54.109375 11.28125 
L 54.109375 2.78125 
Q 49.265625 0.734375 44.1875 -0.34375 
Q 39.109375 -1.421875 33.890625 -1.421875 
Q 20.796875 -1.421875 13.15625 6.1875 
Q 5.515625 13.8125 5.515625 26.8125 
Q 5.515625 40.234375 12.765625 48.109375 
Q 20.015625 56 32.328125 56 
Q 43.359375 56 49.78125 48.890625 
Q 56.203125 41.796875 56.203125 29.59375 
z
M 47.21875 32.234375 
Q 47.125 39.59375 43.09375 43.984375 
Q 39.0625 48.390625 32.421875 48.390625 
Q 24.90625 48.390625 20.390625 44.140625 
Q 15.875 39.890625 15.1875 32.171875 
z
" id="DejaVuSans-1077"/>
      <path d="M 48.78125 52.59375 
L 48.78125 44.1875 
Q 44.96875 46.296875 41.140625 47.34375 
Q 37.3125 48.390625 33.40625 48.390625 
Q 24.65625 48.390625 19.8125 42.84375 
Q 14.984375 37.3125 14.984375 27.296875 
Q 14.984375 17.28125 19.8125 11.734375 
Q 24.65625 6.203125 33.40625 6.203125 
Q 37.3125 6.203125 41.140625 7.25 
Q 44.96875 8.296875 48.78125 10.40625 
L 48.78125 2.09375 
Q 45.015625 0.34375 40.984375 -0.53125 
Q 36.96875 -1.421875 32.421875 -1.421875 
Q 20.0625 -1.421875 12.78125 6.34375 
Q 5.515625 14.109375 5.515625 27.296875 
Q 5.515625 40.671875 12.859375 48.328125 
Q 20.21875 56 33.015625 56 
Q 37.15625 56 41.109375 55.140625 
Q 45.0625 54.296875 48.78125 52.59375 
z
" id="DejaVuSans-1089"/>
      <path d="M 18.453125 38.921875 
Q 18.453125 34.859375 21.578125 32.5625 
Q 24.703125 30.28125 30.515625 30.28125 
L 42.625 30.28125 
L 42.625 47.515625 
L 30.515625 47.515625 
Q 24.703125 47.515625 21.578125 45.265625 
Q 18.453125 43.015625 18.453125 38.921875 
z
M 5.671875 0 
L 22.359375 23.96875 
Q 16.703125 25.25 12.9375 28.59375 
Q 9.1875 31.9375 9.1875 38.921875 
Q 9.1875 46.828125 14.421875 50.75 
Q 19.671875 54.6875 30.28125 54.6875 
L 51.65625 54.6875 
L 51.65625 0 
L 42.625 0 
L 42.625 23.09375 
L 31.453125 23.09375 
L 15.328125 0 
z
" id="DejaVuSans-1103"/>
      <path d="M 56.296875 0 
L 9.078125 0 
L 9.078125 54.6875 
L 18.109375 54.6875 
L 18.109375 7.171875 
L 47.265625 7.171875 
L 47.265625 54.6875 
L 56.296875 54.6875 
L 56.296875 7.171875 
L 63.484375 7.171875 
L 63.484375 -13.8125 
L 56.296875 -13.8125 
z
" id="DejaVuSans-1094"/>
     </defs>
     <g transform="translate(426.249219 500.50494)scale(0.1 -0.1)">
      <use xlink:href="#DejaVuSans-1052"/>
      <use x="86.279297" xlink:href="#DejaVuSans-1077"/>
      <use x="147.802734" xlink:href="#DejaVuSans-1089"/>
      <use x="202.783203" xlink:href="#DejaVuSans-1103"/>
      <use x="262.939453" xlink:href="#DejaVuSans-1094"/>
     </g>
    </g>
   </g>
   <g id="matplotlib.axis_3">
    <g id="ytick_9">
     <g id="line2d_34">
      <path clip-path="url(#pf3c50ed5e0)" d="M 108 401.674042 
L 777.6 401.674042 
" style="fill:none;stroke:#b0b0b0;stroke-linecap:square;stroke-width:0.8;"/>
     </g>
     <g id="line2d_35">
      <defs>
       <path d="M 0 0 
L -3.5 0 
" id="mf9a38bb41f" style="stroke:#000000;stroke-width:0.8;"/>
      </defs>
      <g>
       <use style="stroke:#000000;stroke-width:0.8;" x="108" xlink:href="#mf9a38bb41f" y="401.674042"/>
      </g>
     </g>
     <g id="text_19">
      <!-- 35000 -->
      <defs>
       <path d="M 40.578125 39.3125 
Q 47.65625 37.796875 51.625 33 
Q 55.609375 28.21875 55.609375 21.1875 
Q 55.609375 10.40625 48.1875 4.484375 
Q 40.765625 -1.421875 27.09375 -1.421875 
Q 22.515625 -1.421875 17.65625 -0.515625 
Q 12.796875 0.390625 7.625 2.203125 
L 7.625 11.71875 
Q 11.71875 9.328125 16.59375 8.109375 
Q 21.484375 6.890625 26.8125 6.890625 
Q 36.078125 6.890625 40.9375 10.546875 
Q 45.796875 14.203125 45.796875 21.1875 
Q 45.796875 27.640625 41.28125 31.265625 
Q 36.765625 34.90625 28.71875 34.90625 
L 20.21875 34.90625 
L 20.21875 43.015625 
L 29.109375 43.015625 
Q 36.375 43.015625 40.234375 45.921875 
Q 44.09375 48.828125 44.09375 54.296875 
Q 44.09375 59.90625 40.109375 62.90625 
Q 36.140625 65.921875 28.71875 65.921875 
Q 24.65625 65.921875 20.015625 65.03125 
Q 15.375 64.15625 9.8125 62.3125 
L 9.8125 71.09375 
Q 15.4375 72.65625 20.34375 73.4375 
Q 25.25 74.21875 29.59375 74.21875 
Q 40.828125 74.21875 47.359375 69.109375 
Q 53.90625 64.015625 53.90625 55.328125 
Q 53.90625 49.265625 50.4375 45.09375 
Q 46.96875 40.921875 40.578125 39.3125 
z
" id="DejaVuSans-51"/>
      </defs>
      <g style="fill:#303f9f;" transform="translate(69.1875 405.473261)scale(0.1 -0.1)">
       <use xlink:href="#DejaVuSans-51"/>
       <use x="63.623047" xlink:href="#DejaVuSans-53"/>
       <use x="127.246094" xlink:href="#DejaVuSans-48"/>
       <use x="190.869141" xlink:href="#DejaVuSans-48"/>
       <use x="254.492188" xlink:href="#DejaVuSans-48"/>
      </g>
     </g>
    </g>
    <g id="ytick_10">
     <g id="line2d_36">
      <path clip-path="url(#pf3c50ed5e0)" d="M 108 338.723961 
L 777.6 338.723961 
" style="fill:none;stroke:#b0b0b0;stroke-linecap:square;stroke-width:0.8;"/>
     </g>
     <g id="line2d_37">
      <g>
       <use style="stroke:#000000;stroke-width:0.8;" x="108" xlink:href="#mf9a38bb41f" y="338.723961"/>
      </g>
     </g>
     <g id="text_20">
      <!-- 40000 -->
      <g style="fill:#303f9f;" transform="translate(69.1875 342.523179)scale(0.1 -0.1)">
       <use xlink:href="#DejaVuSans-52"/>
       <use x="63.623047" xlink:href="#DejaVuSans-48"/>
       <use x="127.246094" xlink:href="#DejaVuSans-48"/>
       <use x="190.869141" xlink:href="#DejaVuSans-48"/>
       <use x="254.492188" xlink:href="#DejaVuSans-48"/>
      </g>
     </g>
    </g>
    <g id="ytick_11">
     <g id="line2d_38">
      <path clip-path="url(#pf3c50ed5e0)" d="M 108 275.77388 
L 777.6 275.77388 
" style="fill:none;stroke:#b0b0b0;stroke-linecap:square;stroke-width:0.8;"/>
     </g>
     <g id="line2d_39">
      <g>
       <use style="stroke:#000000;stroke-width:0.8;" x="108" xlink:href="#mf9a38bb41f" y="275.77388"/>
      </g>
     </g>
     <g id="text_21">
      <!-- 45000 -->
      <g style="fill:#303f9f;" transform="translate(69.1875 279.573098)scale(0.1 -0.1)">
       <use xlink:href="#DejaVuSans-52"/>
       <use x="63.623047" xlink:href="#DejaVuSans-53"/>
       <use x="127.246094" xlink:href="#DejaVuSans-48"/>
       <use x="190.869141" xlink:href="#DejaVuSans-48"/>
       <use x="254.492188" xlink:href="#DejaVuSans-48"/>
      </g>
     </g>
    </g>
    <g id="ytick_12">
     <g id="line2d_40">
      <path clip-path="url(#pf3c50ed5e0)" d="M 108 212.823799 
L 777.6 212.823799 
" style="fill:none;stroke:#b0b0b0;stroke-linecap:square;stroke-width:0.8;"/>
     </g>
     <g id="line2d_41">
      <g>
       <use style="stroke:#000000;stroke-width:0.8;" x="108" xlink:href="#mf9a38bb41f" y="212.823799"/>
      </g>
     </g>
     <g id="text_22">
      <!-- 50000 -->
      <g style="fill:#303f9f;" transform="translate(69.1875 216.623017)scale(0.1 -0.1)">
       <use xlink:href="#DejaVuSans-53"/>
       <use x="63.623047" xlink:href="#DejaVuSans-48"/>
       <use x="127.246094" xlink:href="#DejaVuSans-48"/>
       <use x="190.869141" xlink:href="#DejaVuSans-48"/>
       <use x="254.492188" xlink:href="#DejaVuSans-48"/>
      </g>
     </g>
    </g>
    <g id="ytick_13">
     <g id="line2d_42">
      <path clip-path="url(#pf3c50ed5e0)" d="M 108 149.873717 
L 777.6 149.873717 
" style="fill:none;stroke:#b0b0b0;stroke-linecap:square;stroke-width:0.8;"/>
     </g>
     <g id="line2d_43">
      <g>
       <use style="stroke:#000000;stroke-width:0.8;" x="108" xlink:href="#mf9a38bb41f" y="149.873717"/>
      </g>
     </g>
     <g id="text_23">
      <!-- 55000 -->
      <g style="fill:#303f9f;" transform="translate(69.1875 153.672936)scale(0.1 -0.1)">
       <use xlink:href="#DejaVuSans-53"/>
       <use x="63.623047" xlink:href="#DejaVuSans-53"/>
       <use x="127.246094" xlink:href="#DejaVuSans-48"/>
       <use x="190.869141" xlink:href="#DejaVuSans-48"/>
       <use x="254.492188" xlink:href="#DejaVuSans-48"/>
      </g>
     </g>
    </g>
    <g id="ytick_14">
     <g id="line2d_44">
      <path clip-path="url(#pf3c50ed5e0)" d="M 108 86.923636 
L 777.6 86.923636 
" style="fill:none;stroke:#b0b0b0;stroke-linecap:square;stroke-width:0.8;"/>
     </g>
     <g id="line2d_45">
      <g>
       <use style="stroke:#000000;stroke-width:0.8;" x="108" xlink:href="#mf9a38bb41f" y="86.923636"/>
      </g>
     </g>
     <g id="text_24">
      <!-- 60000 -->
      <g style="fill:#303f9f;" transform="translate(69.1875 90.722855)scale(0.1 -0.1)">
       <use xlink:href="#DejaVuSans-54"/>
       <use x="63.623047" xlink:href="#DejaVuSans-48"/>
       <use x="127.246094" xlink:href="#DejaVuSans-48"/>
       <use x="190.869141" xlink:href="#DejaVuSans-48"/>
       <use x="254.492188" xlink:href="#DejaVuSans-48"/>
      </g>
     </g>
    </g>
    <g id="text_25">
     <!-- RUB -->
     <defs>
      <path d="M 44.390625 34.1875 
Q 47.5625 33.109375 50.5625 29.59375 
Q 53.5625 26.078125 56.59375 19.921875 
L 66.609375 0 
L 56 0 
L 46.6875 18.703125 
Q 43.0625 26.03125 39.671875 28.421875 
Q 36.28125 30.8125 30.421875 30.8125 
L 19.671875 30.8125 
L 19.671875 0 
L 9.8125 0 
L 9.8125 72.90625 
L 32.078125 72.90625 
Q 44.578125 72.90625 50.734375 67.671875 
Q 56.890625 62.453125 56.890625 51.90625 
Q 56.890625 45.015625 53.6875 40.46875 
Q 50.484375 35.9375 44.390625 34.1875 
z
M 19.671875 64.796875 
L 19.671875 38.921875 
L 32.078125 38.921875 
Q 39.203125 38.921875 42.84375 42.21875 
Q 46.484375 45.515625 46.484375 51.90625 
Q 46.484375 58.296875 42.84375 61.546875 
Q 39.203125 64.796875 32.078125 64.796875 
z
" id="DejaVuSans-82"/>
      <path d="M 19.671875 34.8125 
L 19.671875 8.109375 
L 35.5 8.109375 
Q 43.453125 8.109375 47.28125 11.40625 
Q 51.125 14.703125 51.125 21.484375 
Q 51.125 28.328125 47.28125 31.5625 
Q 43.453125 34.8125 35.5 34.8125 
z
M 19.671875 64.796875 
L 19.671875 42.828125 
L 34.28125 42.828125 
Q 41.5 42.828125 45.03125 45.53125 
Q 48.578125 48.25 48.578125 53.8125 
Q 48.578125 59.328125 45.03125 62.0625 
Q 41.5 64.796875 34.28125 64.796875 
z
M 9.8125 72.90625 
L 35.015625 72.90625 
Q 46.296875 72.90625 52.390625 68.21875 
Q 58.5 63.53125 58.5 54.890625 
Q 58.5 48.1875 55.375 44.234375 
Q 52.25 40.28125 46.1875 39.3125 
Q 53.46875 37.75 57.5 32.78125 
Q 61.53125 27.828125 61.53125 20.40625 
Q 61.53125 10.640625 54.890625 5.3125 
Q 48.25 0 35.984375 0 
L 9.8125 0 
z
" id="DejaVuSans-66"/>
     </defs>
     <g style="fill:#303f9f;" transform="translate(63.107813 275.524062)rotate(-90)scale(0.1 -0.1)">
      <use xlink:href="#DejaVuSans-82"/>
      <use x="69.482422" xlink:href="#DejaVuSans-85"/>
      <use x="142.675781" xlink:href="#DejaVuSans-66"/>
     </g>
    </g>
   </g>
   <g id="line2d_46">
    <path clip-path="url(#pf3c50ed5e0)" d="M 138.436364 338.723961 
L 335.94175 338.723961 
L 335.94175 212.823799 
L 533.176952 212.823799 
L 533.176952 86.923636 
L 747.163636 86.923636 
L 747.163636 86.923636 
" style="fill:none;stroke:#303f9f;stroke-linecap:square;stroke-width:1.5;"/>
   </g>
   <g id="line2d_47">
    <path clip-path="url(#pf3c50ed5e0)" d="M 138.436364 338.723961 
L 138.436364 343.808821 
L 146.812105 343.808821 
L 146.812105 348.255443 
L 154.917661 348.255443 
L 154.917661 352.662401 
L 163.293403 352.662401 
L 163.293403 355.679602 
L 171.398959 355.679602 
L 171.398959 358.052537 
L 179.7747 358.052537 
L 179.7747 359.212005 
L 188.150442 359.212005 
L 188.150442 362.331956 
L 196.255998 362.331956 
L 196.255998 366.235885 
L 204.631739 366.235885 
L 204.631739 372.252804 
L 212.737296 372.252804 
L 212.737296 384.254249 
L 221.113037 384.254249 
L 221.113037 401.236154 
L 229.488779 401.236154 
L 229.488779 410.815652 
L 237.053964 410.815652 
L 237.053964 415.974488 
L 245.429706 415.974488 
L 245.429706 417.92672 
L 253.535262 417.92672 
L 253.535262 419.40693 
L 261.911004 419.40693 
L 261.911004 420.208951 
L 270.01656 420.208951 
L 270.01656 423.559076 
L 278.392301 423.559076 
L 278.392301 425.019643 
L 286.768043 425.019643 
L 286.768043 427.384798 
L 294.873599 427.384798 
L 294.873599 430.432796 
L 303.24934 430.432796 
L 303.24934 433.498989 
L 311.354897 433.498989 
L 311.354897 436.622891 
L 319.730638 436.622891 
L 319.730638 440.480595 
L 328.106379 440.480595 
L 328.106379 442.996364 
L 335.94175 442.996364 
L 335.94175 345.449927 
L 344.317492 345.449927 
L 344.317492 347.626596 
L 352.423048 347.626596 
L 352.423048 349.646577 
L 360.798789 349.646577 
L 360.798789 351.413857 
L 368.904346 351.413857 
L 368.904346 354.050539 
L 385.655829 354.099361 
L 385.655829 354.927933 
L 393.761385 354.927933 
L 393.761385 357.014766 
L 402.137126 357.014766 
L 402.137126 359.140773 
L 410.242682 359.140773 
L 410.242682 361.065806 
L 418.618424 361.065806 
L 418.618424 364.031226 
L 426.994165 364.031226 
L 426.994165 365.081162 
L 434.559351 365.081162 
L 434.559351 365.700772 
L 442.935093 365.700772 
L 442.935093 367.268459 
L 451.040649 367.268459 
L 451.040649 369.019687 
L 459.41639 369.019687 
L 459.41639 371.889344 
L 467.521946 371.889344 
L 467.521946 372.218418 
L 475.897688 372.218418 
L 475.897688 369.666061 
L 484.273429 369.666061 
L 484.273429 368.95601 
L 492.378986 368.95601 
L 492.378986 369.900859 
L 500.754727 369.900859 
L 500.754727 370.937909 
L 508.860283 370.937909 
L 508.860283 372.909451 
L 517.236025 372.909451 
L 517.236025 374.360141 
L 525.611766 374.360141 
L 525.611766 375.340807 
L 533.176952 375.340807 
L 533.176952 283.564449 
L 541.552693 283.564449 
L 541.552693 285.679697 
L 549.65825 285.679697 
L 549.65825 287.786937 
L 558.033991 287.786937 
L 558.033991 290.490924 
L 566.139547 290.490924 
L 566.139547 291.976863 
L 582.89103 292.031893 
L 582.89103 292.910952 
L 590.996586 292.910952 
L 590.996586 294.827192 
L 599.372328 294.827192 
L 599.372328 297.551057 
L 607.477884 297.551057 
L 607.477884 302.089037 
L 615.853625 302.089037 
L 615.853625 307.490858 
L 624.229367 307.490858 
L 624.229367 309.833815 
L 631.794553 309.833815 
L 631.794553 311.532349 
L 640.170294 311.532349 
L 640.170294 313.067193 
L 648.27585 313.067193 
L 648.27585 314.860571 
L 656.651592 314.860571 
L 656.651592 315.071472 
L 664.757148 315.071472 
L 664.757148 316.123875 
L 673.132889 316.123875 
L 673.132889 314.857957 
L 681.508631 314.857957 
L 681.508631 314.01266 
L 689.614187 314.01266 
L 689.614187 314.698573 
L 697.989929 314.698573 
L 697.989929 316.171799 
L 706.095485 316.171799 
L 706.095485 318.059157 
L 714.471226 318.059157 
L 714.471226 320.147862 
L 722.846968 320.147862 
L 722.846968 321.86538 
L 730.682339 321.86538 
L 730.682339 323.577248 
L 739.05808 323.577248 
L 739.05808 323.577248 
" style="fill:none;stroke:#d32f2f;stroke-linecap:square;stroke-width:1.5;"/>
   </g>
   <g id="line2d_48">
    <path clip-path="url(#pf3c50ed5e0)" d="M 739.05808 460.8 
L 739.05808 69.12 
" style="fill:none;stroke:#757575;stroke-linecap:square;stroke-width:1.5;"/>
   </g>
   <g id="patch_7">
    <path d="M 108 460.8 
L 108 69.12 
" style="fill:none;stroke:#000000;stroke-linecap:square;stroke-linejoin:miter;stroke-width:0.8;"/>
   </g>
   <g id="patch_8">
    <path d="M 777.6 460.8 
L 777.6 69.12 
" style="fill:none;stroke:#000000;stroke-linecap:square;stroke-linejoin:miter;stroke-width:0.8;"/>
   </g>
   <g id="patch_9">
    <path d="M 108 460.8 
L 777.6 460.8 
" style="fill:none;stroke:#000000;stroke-linecap:square;stroke-linejoin:miter;stroke-width:0.8;"/>
   </g>
   <g id="patch_10">
    <path d="M 108 69.12 
L 777.6 69.12 
" style="fill:none;stroke:#000000;stroke-linecap:square;stroke-linejoin:miter;stroke-width:0.8;"/>
   </g>
   <g id="text_26">
    <g id="patch_11">
     <path d="M 311.050344 332.213632 
L 360.833157 332.213632 
L 360.833157 314.535507 
L 311.050344 314.535507 
z
" style="fill:#037149;opacity:0.75;stroke:#000000;stroke-linejoin:miter;"/>
    </g>
    <!-- 2016-03 -->
    <defs>
     <path d="M 4.890625 31.390625 
L 31.203125 31.390625 
L 31.203125 23.390625 
L 4.890625 23.390625 
z
" id="DejaVuSans-45"/>
    </defs>
    <g style="fill:#ffffff;" transform="translate(315.050344 326.133944)scale(0.1 -0.1)">
     <use xlink:href="#DejaVuSans-50"/>
     <use x="63.623047" xlink:href="#DejaVuSans-48"/>
     <use x="127.246094" xlink:href="#DejaVuSans-49"/>
     <use x="190.869141" xlink:href="#DejaVuSans-54"/>
     <use x="254.492188" xlink:href="#DejaVuSans-45"/>
     <use x="290.576172" xlink:href="#DejaVuSans-48"/>
     <use x="354.199219" xlink:href="#DejaVuSans-51"/>
    </g>
   </g>
   <g id="text_27">
    <g id="patch_12">
     <path d="M 508.285546 206.31347 
L 558.068358 206.31347 
L 558.068358 188.635345 
L 508.285546 188.635345 
z
" style="fill:#037149;opacity:0.75;stroke:#000000;stroke-linejoin:miter;"/>
    </g>
    <!-- 2018-03 -->
    <g style="fill:#ffffff;" transform="translate(512.285546 200.233782)scale(0.1 -0.1)">
     <use xlink:href="#DejaVuSans-50"/>
     <use x="63.623047" xlink:href="#DejaVuSans-48"/>
     <use x="127.246094" xlink:href="#DejaVuSans-49"/>
     <use x="190.869141" xlink:href="#DejaVuSans-56"/>
     <use x="254.492188" xlink:href="#DejaVuSans-45"/>
     <use x="290.576172" xlink:href="#DejaVuSans-48"/>
     <use x="354.199219" xlink:href="#DejaVuSans-51"/>
    </g>
   </g>
   <g id="text_28">
    <!-- Относительная з/п -->
    <defs>
     <path d="M 39.40625 66.21875 
Q 28.65625 66.21875 22.328125 58.203125 
Q 16.015625 50.203125 16.015625 36.375 
Q 16.015625 22.609375 22.328125 14.59375 
Q 28.65625 6.59375 39.40625 6.59375 
Q 50.140625 6.59375 56.421875 14.59375 
Q 62.703125 22.609375 62.703125 36.375 
Q 62.703125 50.203125 56.421875 58.203125 
Q 50.140625 66.21875 39.40625 66.21875 
z
M 39.40625 74.21875 
Q 54.734375 74.21875 63.90625 63.9375 
Q 73.09375 53.65625 73.09375 36.375 
Q 73.09375 19.140625 63.90625 8.859375 
Q 54.734375 -1.421875 39.40625 -1.421875 
Q 24.03125 -1.421875 14.8125 8.828125 
Q 5.609375 19.09375 5.609375 36.375 
Q 5.609375 53.65625 14.8125 63.9375 
Q 24.03125 74.21875 39.40625 74.21875 
z
" id="DejaVuSans-1054"/>
     <path d="M 9.078125 54.6875 
L 18.109375 54.6875 
L 18.109375 32.375 
L 47.265625 32.375 
L 47.265625 54.6875 
L 56.296875 54.6875 
L 56.296875 0 
L 47.265625 0 
L 47.265625 25.203125 
L 18.109375 25.203125 
L 18.109375 0 
L 9.078125 0 
z
" id="DejaVuSans-1085"/>
     <path d="M 30.609375 48.390625 
Q 23.390625 48.390625 19.1875 42.75 
Q 14.984375 37.109375 14.984375 27.296875 
Q 14.984375 17.484375 19.15625 11.84375 
Q 23.34375 6.203125 30.609375 6.203125 
Q 37.796875 6.203125 41.984375 11.859375 
Q 46.1875 17.53125 46.1875 27.296875 
Q 46.1875 37.015625 41.984375 42.703125 
Q 37.796875 48.390625 30.609375 48.390625 
z
M 30.609375 56 
Q 42.328125 56 49.015625 48.375 
Q 55.71875 40.765625 55.71875 27.296875 
Q 55.71875 13.875 49.015625 6.21875 
Q 42.328125 -1.421875 30.609375 -1.421875 
Q 18.84375 -1.421875 12.171875 6.21875 
Q 5.515625 13.875 5.515625 27.296875 
Q 5.515625 40.765625 12.171875 48.375 
Q 18.84375 56 30.609375 56 
z
" id="DejaVuSans-1086"/>
     <path d="M 55.90625 54.6875 
L 55.90625 0 
L 46.96875 0 
L 46.96875 43.890625 
L 20.609375 0 
L 9.078125 0 
L 9.078125 54.6875 
L 18.015625 54.6875 
L 18.015625 10.890625 
L 44.34375 54.6875 
z
" id="DejaVuSans-1080"/>
     <path d="M 43.453125 16.21875 
Q 43.453125 20.609375 40.25 22.90625 
Q 37.0625 25.203125 30.90625 25.203125 
L 18.109375 25.203125 
L 18.109375 7.171875 
L 30.90625 7.171875 
Q 37.0625 7.171875 40.25 9.484375 
Q 43.453125 11.8125 43.453125 16.21875 
z
M 9.078125 54.6875 
L 18.109375 54.6875 
L 18.109375 32.375 
L 31.296875 32.375 
Q 41.75 32.375 47.390625 28.390625 
Q 53.03125 24.421875 53.03125 16.21875 
Q 53.03125 8.015625 47.390625 4 
Q 41.75 0 31.296875 0 
L 9.078125 0 
z
" id="DejaVuSans-1100"/>
     <path d="M 34.46875 29.5 
Q 40.53125 28.328125 43.890625 24.75 
Q 47.265625 21.1875 47.265625 15.921875 
Q 47.265625 7.46875 40.96875 3.015625 
Q 34.671875 -1.421875 23.046875 -1.421875 
Q 19.140625 -1.421875 15.015625 -0.734375 
Q 10.890625 -0.046875 6.5 1.3125 
L 6.5 9.671875 
Q 9.96875 7.859375 14.109375 6.953125 
Q 18.265625 6.0625 22.796875 6.0625 
Q 30.171875 6.0625 34.296875 8.796875 
Q 38.421875 11.53125 38.421875 15.921875 
Q 38.421875 20.21875 34.765625 22.828125 
Q 31.109375 25.4375 24.421875 25.4375 
L 17.1875 25.4375 
L 17.1875 32.859375 
L 24.75 32.859375 
Q 30.421875 32.859375 33.71875 35.03125 
Q 37.015625 37.203125 37.015625 40.625 
Q 37.015625 43.75 33.609375 46 
Q 30.21875 48.25 24.421875 48.25 
Q 20.953125 48.25 17.015625 47.609375 
Q 13.09375 46.96875 8.34375 45.5625 
L 8.34375 53.71875 
Q 13.140625 54.890625 17.28125 55.46875 
Q 21.4375 56.0625 25.140625 56.0625 
Q 34.71875 56.0625 40.25 52.21875 
Q 45.796875 48.390625 45.796875 41.5 
Q 45.796875 36.96875 42.859375 33.8125 
Q 39.9375 30.671875 34.46875 29.5 
z
" id="DejaVuSans-1079"/>
     <path d="M 25.390625 72.90625 
L 33.6875 72.90625 
L 8.296875 -9.28125 
L 0 -9.28125 
z
" id="DejaVuSans-47"/>
    </defs>
    <g transform="translate(333.133438 63.12)scale(0.22 -0.22)">
     <use xlink:href="#DejaVuSans-1054"/>
     <use x="78.710938" xlink:href="#DejaVuSans-1090"/>
     <use x="136.962891" xlink:href="#DejaVuSans-1085"/>
     <use x="202.34375" xlink:href="#DejaVuSans-1086"/>
     <use x="263.525391" xlink:href="#DejaVuSans-1089"/>
     <use x="318.505859" xlink:href="#DejaVuSans-1080"/>
     <use x="383.496094" xlink:href="#DejaVuSans-1090"/>
     <use x="441.748047" xlink:href="#DejaVuSans-1077"/>
     <use x="503.271484" xlink:href="#DejaVuSans-1083"/>
     <use x="567.1875" xlink:href="#DejaVuSans-1100"/>
     <use x="626.123047" xlink:href="#DejaVuSans-1085"/>
     <use x="691.503906" xlink:href="#DejaVuSans-1072"/>
     <use x="752.783203" xlink:href="#DejaVuSans-1103"/>
     <use x="812.939453" xlink:href="#DejaVuSans-32"/>
     <use x="844.726562" xlink:href="#DejaVuSans-1079"/>
     <use x="897.900391" xlink:href="#DejaVuSans-47"/>
     <use x="931.591797" xlink:href="#DejaVuSans-1087"/>
    </g>
   </g>
   <g id="legend_2">
    <g id="patch_13">
     <path d="M 115 150.85125 
L 571.079688 150.85125 
Q 573.079688 150.85125 573.079688 148.85125 
L 573.079688 76.12 
Q 573.079688 74.12 571.079688 74.12 
L 115 74.12 
Q 113 74.12 113 76.12 
L 113 148.85125 
Q 113 150.85125 115 150.85125 
z
" style="fill:#ffffff;opacity:0.8;stroke:#cccccc;stroke-linejoin:miter;"/>
    </g>
    <g id="line2d_49">
     <path d="M 117 82.218438 
L 137 82.218438 
" style="fill:none;stroke:#303f9f;stroke-linecap:square;stroke-width:1.5;"/>
    </g>
    <g id="line2d_50"/>
    <g id="text_29">
     <!-- З/п в основной валюте (RUB) -->
     <defs>
      <path d="M 55.90625 54.6875 
L 55.90625 0 
L 46.96875 0 
L 46.96875 43.890625 
L 20.609375 0 
L 9.078125 0 
L 9.078125 54.6875 
L 18.015625 54.6875 
L 18.015625 10.890625 
L 44.34375 54.6875 
z
M 17.21875 75.515625 
L 22.984375 75.515625 
Q 23.515625 71.859375 25.875 70.015625 
Q 28.25 68.1875 32.5 68.1875 
Q 36.703125 68.1875 39.046875 70 
Q 41.390625 71.8125 42.015625 75.515625 
L 47.78125 75.515625 
Q 47.296875 68.53125 43.4375 65.015625 
Q 39.578125 61.5 32.5 61.5 
Q 25.421875 61.5 21.5625 65.015625 
Q 17.703125 68.53125 17.21875 75.515625 
z
" id="DejaVuSans-1081"/>
      <path d="M 53.609375 48.390625 
Q 46.390625 48.390625 42.1875 42.75 
Q 37.984375 37.109375 37.984375 27.296875 
Q 37.984375 17.484375 42.15625 11.84375 
Q 46.34375 6.203125 53.609375 6.203125 
Q 60.796875 6.203125 64.984375 11.859375 
Q 69.1875 17.53125 69.1875 27.296875 
Q 69.1875 37.015625 64.984375 42.703125 
Q 60.796875 48.390625 53.609375 48.390625 
z
M 28.8125 32.859375 
Q 29.734375 42.140625 35.8125 49.0625 
Q 41.890625 56 53.609375 56 
Q 65.328125 56 72.015625 48.375 
Q 78.71875 40.765625 78.71875 27.296875 
Q 78.71875 13.875 72.015625 6.21875 
Q 65.328125 -1.421875 53.609375 -1.421875 
Q 41.84375 -1.421875 35.421875 5.953125 
Q 29 13.328125 28.5625 25.4375 
L 18.40625 25.4375 
L 18.40625 0 
L 9.421875 0 
L 9.421875 54.6875 
L 18.40625 54.6875 
L 18.40625 32.859375 
z
" id="DejaVuSans-1102"/>
      <path d="M 31 75.875 
Q 24.46875 64.65625 21.28125 53.65625 
Q 18.109375 42.671875 18.109375 31.390625 
Q 18.109375 20.125 21.3125 9.0625 
Q 24.515625 -2 31 -13.1875 
L 23.1875 -13.1875 
Q 15.875 -1.703125 12.234375 9.375 
Q 8.59375 20.453125 8.59375 31.390625 
Q 8.59375 42.28125 12.203125 53.3125 
Q 15.828125 64.359375 23.1875 75.875 
z
" id="DejaVuSans-40"/>
      <path d="M 8.015625 75.875 
L 15.828125 75.875 
Q 23.140625 64.359375 26.78125 53.3125 
Q 30.421875 42.28125 30.421875 31.390625 
Q 30.421875 20.453125 26.78125 9.375 
Q 23.140625 -1.703125 15.828125 -13.1875 
L 8.015625 -13.1875 
Q 14.5 -2 17.703125 9.0625 
Q 20.90625 20.125 20.90625 31.390625 
Q 20.90625 42.671875 17.703125 53.65625 
Q 14.5 64.65625 8.015625 75.875 
z
" id="DejaVuSans-41"/>
     </defs>
     <g transform="translate(145 85.718438)scale(0.1 -0.1)">
      <use xlink:href="#DejaVuSans-1047"/>
      <use x="64.111328" xlink:href="#DejaVuSans-47"/>
      <use x="97.802734" xlink:href="#DejaVuSans-1087"/>
      <use x="163.183594" xlink:href="#DejaVuSans-32"/>
      <use x="194.970703" xlink:href="#DejaVuSans-1074"/>
      <use x="253.90625" xlink:href="#DejaVuSans-32"/>
      <use x="285.693359" xlink:href="#DejaVuSans-1086"/>
      <use x="346.875" xlink:href="#DejaVuSans-1089"/>
      <use x="401.855469" xlink:href="#DejaVuSans-1085"/>
      <use x="467.236328" xlink:href="#DejaVuSans-1086"/>
      <use x="528.417969" xlink:href="#DejaVuSans-1074"/>
      <use x="587.353516" xlink:href="#DejaVuSans-1085"/>
      <use x="652.734375" xlink:href="#DejaVuSans-1086"/>
      <use x="713.916016" xlink:href="#DejaVuSans-1081"/>
      <use x="778.90625" xlink:href="#DejaVuSans-32"/>
      <use x="810.693359" xlink:href="#DejaVuSans-1074"/>
      <use x="869.628906" xlink:href="#DejaVuSans-1072"/>
      <use x="930.908203" xlink:href="#DejaVuSans-1083"/>
      <use x="994.824219" xlink:href="#DejaVuSans-1102"/>
      <use x="1079.003906" xlink:href="#DejaVuSans-1090"/>
      <use x="1137.255859" xlink:href="#DejaVuSans-1077"/>
      <use x="1198.779297" xlink:href="#DejaVuSans-32"/>
      <use x="1230.566406" xlink:href="#DejaVuSans-40"/>
      <use x="1269.580078" xlink:href="#DejaVuSans-82"/>
      <use x="1339.0625" xlink:href="#DejaVuSans-85"/>
      <use x="1412.255859" xlink:href="#DejaVuSans-66"/>
      <use x="1480.859375" xlink:href="#DejaVuSans-41"/>
     </g>
    </g>
    <g id="line2d_51">
     <path d="M 117 97.066875 
L 137 97.066875 
" style="fill:none;stroke:#d32f2f;stroke-linecap:square;stroke-width:1.5;"/>
    </g>
    <g id="line2d_52"/>
    <g id="text_30">
     <!-- З/п с учётом покупательной способности (с момента первого трудоустройства) -->
     <defs>
      <path d="M 32.171875 -5.078125 
Q 28.375 -14.84375 24.75 -17.8125 
Q 21.140625 -20.796875 15.09375 -20.796875 
L 7.90625 -20.796875 
L 7.90625 -13.28125 
L 13.1875 -13.28125 
Q 16.890625 -13.28125 18.9375 -11.515625 
Q 21 -9.765625 23.484375 -3.21875 
L 25.09375 0.875 
L 2.984375 54.6875 
L 12.5 54.6875 
L 29.59375 11.921875 
L 46.6875 54.6875 
L 56.203125 54.6875 
z
" id="DejaVuSans-1091"/>
      <path d="M 41.015625 0 
L 41.015625 23 
L 24.265625 23 
Q 16.796875 23 11.8125 27.640625 
Q 7.328125 31.84375 7.328125 40.828125 
L 7.328125 54.6875 
L 16.3125 54.6875 
L 16.3125 41.65625 
Q 16.3125 35.9375 18.84375 33.0625 
Q 21.4375 30.171875 26.515625 30.171875 
L 41.015625 30.171875 
L 41.015625 54.6875 
L 50 54.6875 
L 50 0 
z
" id="DejaVuSans-1095"/>
      <path d="M 56.203125 29.59375 
L 56.203125 25.203125 
L 14.890625 25.203125 
Q 15.484375 15.921875 20.484375 11.0625 
Q 25.484375 6.203125 34.421875 6.203125 
Q 39.59375 6.203125 44.453125 7.46875 
Q 49.3125 8.734375 54.109375 11.28125 
L 54.109375 2.78125 
Q 49.265625 0.734375 44.1875 -0.34375 
Q 39.109375 -1.421875 33.890625 -1.421875 
Q 20.796875 -1.421875 13.15625 6.1875 
Q 5.515625 13.8125 5.515625 26.8125 
Q 5.515625 40.234375 12.765625 48.109375 
Q 20.015625 56 32.328125 56 
Q 43.359375 56 49.78125 48.890625 
Q 56.203125 41.796875 56.203125 29.59375 
z
M 47.21875 32.234375 
Q 47.125 39.59375 43.09375 43.984375 
Q 39.0625 48.390625 32.421875 48.390625 
Q 24.90625 48.390625 20.390625 44.140625 
Q 15.875 39.890625 15.1875 32.171875 
z
M 36.96875 75.78125 
L 46.875 75.78125 
L 46.875 65.921875 
L 36.96875 65.921875 
z
M 17.875 75.78125 
L 27.78125 75.78125 
L 27.78125 65.921875 
L 17.875 65.921875 
z
" id="DejaVuSans-1105"/>
      <path d="M 9.078125 54.6875 
L 22.21875 54.6875 
L 37.75 18.0625 
L 53.328125 54.6875 
L 66.359375 54.6875 
L 66.359375 0 
L 57.328125 0 
L 57.328125 46.09375 
L 42.234375 10.5 
L 33.25 10.5 
L 18.109375 46.09375 
L 18.109375 0 
L 9.078125 0 
z
" id="DejaVuSans-1084"/>
      <path d="M 9.078125 54.6875 
L 18.015625 54.6875 
L 18.015625 29 
L 43.359375 54.6875 
L 54.390625 54.6875 
L 33.5 33.546875 
L 57.078125 0 
L 47.015625 0 
L 27.640625 27.59375 
L 18.015625 17.828125 
L 18.015625 0 
L 9.078125 0 
z
" id="DejaVuSans-1082"/>
      <path d="M 31.109375 56 
Q 42.828125 56 49.515625 48.375 
Q 56.203125 40.765625 56.203125 27.296875 
Q 56.203125 13.875 49.515625 6.21875 
Q 42.828125 -1.421875 31.109375 -1.421875 
Q 19.34375 -1.421875 12.84375 6 
Q 6.34375 13.421875 6 27.296875 
L 5.71875 38.484375 
Q 5.46875 44.28125 5.46875 46.296875 
Q 5.46875 54.109375 8.296875 59.859375 
Q 12.75 68.890625 20.4375 72.796875 
Q 28.125 76.703125 41.015625 76.8125 
Q 46.96875 76.859375 49.609375 77.6875 
L 52.09375 70.5625 
Q 49.703125 69.578125 47.515625 69.53125 
L 35.296875 68.703125 
Q 29.15625 68.265625 25.4375 66.109375 
Q 15.71875 60.40625 14.796875 52.9375 
L 14.453125 50.203125 
Q 20.796875 56 31.109375 56 
z
M 31.109375 48.390625 
Q 23.875 48.390625 19.671875 42.75 
Q 15.484375 37.109375 15.484375 27.296875 
Q 15.484375 17.484375 19.65625 11.84375 
Q 23.828125 6.203125 31.109375 6.203125 
Q 38.28125 6.203125 42.484375 11.859375 
Q 46.6875 17.53125 46.6875 27.296875 
Q 46.6875 37.015625 42.484375 42.703125 
Q 38.28125 48.390625 31.109375 48.390625 
z
" id="DejaVuSans-1073"/>
      <path d="M 9.078125 0 
L 9.078125 54.6875 
L 47.65625 54.6875 
L 47.65625 47.515625 
L 18.109375 47.515625 
L 18.109375 0 
z
" id="DejaVuSans-1075"/>
      <path d="M 21.625 7.171875 
L 47.703125 7.171875 
L 47.703125 47.515625 
L 28.8125 47.515625 
L 28.8125 40.671875 
Q 28.8125 20.5625 23.046875 9.8125 
z
M 8.59375 7.171875 
Q 13.03125 9.125 14.984375 13.28125 
Q 19.78125 23.578125 19.78125 44.34375 
L 19.78125 54.6875 
L 56.734375 54.6875 
L 56.734375 7.171875 
L 63.921875 7.171875 
L 63.921875 -13.8125 
L 56.734375 -13.8125 
L 56.734375 0 
L 12.40625 0 
L 12.40625 -13.8125 
L 5.21875 -13.8125 
L 5.21875 7.171875 
z
" id="DejaVuSans-1076"/>
     </defs>
     <g transform="translate(145 100.566875)scale(0.1 -0.1)">
      <use xlink:href="#DejaVuSans-1047"/>
      <use x="64.111328" xlink:href="#DejaVuSans-47"/>
      <use x="97.802734" xlink:href="#DejaVuSans-1087"/>
      <use x="163.183594" xlink:href="#DejaVuSans-32"/>
      <use x="194.970703" xlink:href="#DejaVuSans-1089"/>
      <use x="249.951172" xlink:href="#DejaVuSans-32"/>
      <use x="281.738281" xlink:href="#DejaVuSans-1091"/>
      <use x="340.917969" xlink:href="#DejaVuSans-1095"/>
      <use x="400" xlink:href="#DejaVuSans-1105"/>
      <use x="461.523438" xlink:href="#DejaVuSans-1090"/>
      <use x="519.775391" xlink:href="#DejaVuSans-1086"/>
      <use x="580.957031" xlink:href="#DejaVuSans-1084"/>
      <use x="656.396484" xlink:href="#DejaVuSans-32"/>
      <use x="688.183594" xlink:href="#DejaVuSans-1087"/>
      <use x="753.564453" xlink:href="#DejaVuSans-1086"/>
      <use x="814.746094" xlink:href="#DejaVuSans-1082"/>
      <use x="875.146484" xlink:href="#DejaVuSans-1091"/>
      <use x="934.326172" xlink:href="#DejaVuSans-1087"/>
      <use x="999.707031" xlink:href="#DejaVuSans-1072"/>
      <use x="1060.986328" xlink:href="#DejaVuSans-1090"/>
      <use x="1119.238281" xlink:href="#DejaVuSans-1077"/>
      <use x="1180.761719" xlink:href="#DejaVuSans-1083"/>
      <use x="1244.677734" xlink:href="#DejaVuSans-1100"/>
      <use x="1303.613281" xlink:href="#DejaVuSans-1085"/>
      <use x="1368.994141" xlink:href="#DejaVuSans-1086"/>
      <use x="1430.175781" xlink:href="#DejaVuSans-1081"/>
      <use x="1495.166016" xlink:href="#DejaVuSans-32"/>
      <use x="1526.953125" xlink:href="#DejaVuSans-1089"/>
      <use x="1581.933594" xlink:href="#DejaVuSans-1087"/>
      <use x="1647.314453" xlink:href="#DejaVuSans-1086"/>
      <use x="1708.496094" xlink:href="#DejaVuSans-1089"/>
      <use x="1763.476562" xlink:href="#DejaVuSans-1086"/>
      <use x="1824.658203" xlink:href="#DejaVuSans-1073"/>
      <use x="1886.328125" xlink:href="#DejaVuSans-1085"/>
      <use x="1951.708984" xlink:href="#DejaVuSans-1086"/>
      <use x="2012.890625" xlink:href="#DejaVuSans-1089"/>
      <use x="2067.871094" xlink:href="#DejaVuSans-1090"/>
      <use x="2126.123047" xlink:href="#DejaVuSans-1080"/>
      <use x="2191.113281" xlink:href="#DejaVuSans-32"/>
      <use x="2222.900391" xlink:href="#DejaVuSans-40"/>
      <use x="2261.914062" xlink:href="#DejaVuSans-1089"/>
      <use x="2316.894531" xlink:href="#DejaVuSans-32"/>
      <use x="2348.681641" xlink:href="#DejaVuSans-1084"/>
      <use x="2424.121094" xlink:href="#DejaVuSans-1086"/>
      <use x="2485.302734" xlink:href="#DejaVuSans-1084"/>
      <use x="2560.742188" xlink:href="#DejaVuSans-1077"/>
      <use x="2622.265625" xlink:href="#DejaVuSans-1085"/>
      <use x="2687.646484" xlink:href="#DejaVuSans-1090"/>
      <use x="2745.898438" xlink:href="#DejaVuSans-1072"/>
      <use x="2807.177734" xlink:href="#DejaVuSans-32"/>
      <use x="2838.964844" xlink:href="#DejaVuSans-1087"/>
      <use x="2904.345703" xlink:href="#DejaVuSans-1077"/>
      <use x="2965.869141" xlink:href="#DejaVuSans-1088"/>
      <use x="3029.345703" xlink:href="#DejaVuSans-1074"/>
      <use x="3088.28125" xlink:href="#DejaVuSans-1086"/>
      <use x="3149.462891" xlink:href="#DejaVuSans-1075"/>
      <use x="3202.001953" xlink:href="#DejaVuSans-1086"/>
      <use x="3263.183594" xlink:href="#DejaVuSans-32"/>
      <use x="3294.970703" xlink:href="#DejaVuSans-1090"/>
      <use x="3353.222656" xlink:href="#DejaVuSans-1088"/>
      <use x="3416.699219" xlink:href="#DejaVuSans-1091"/>
      <use x="3475.878906" xlink:href="#DejaVuSans-1076"/>
      <use x="3545.019531" xlink:href="#DejaVuSans-1086"/>
      <use x="3606.201172" xlink:href="#DejaVuSans-1091"/>
      <use x="3665.380859" xlink:href="#DejaVuSans-1089"/>
      <use x="3720.361328" xlink:href="#DejaVuSans-1090"/>
      <use x="3778.613281" xlink:href="#DejaVuSans-1088"/>
      <use x="3842.089844" xlink:href="#DejaVuSans-1086"/>
      <use x="3903.271484" xlink:href="#DejaVuSans-1081"/>
      <use x="3968.261719" xlink:href="#DejaVuSans-1089"/>
      <use x="4023.242188" xlink:href="#DejaVuSans-1090"/>
      <use x="4081.494141" xlink:href="#DejaVuSans-1074"/>
      <use x="4140.429688" xlink:href="#DejaVuSans-1072"/>
      <use x="4201.708984" xlink:href="#DejaVuSans-41"/>
     </g>
    </g>
    <g id="line2d_53">
     <path d="M 117 111.915313 
L 137 111.915313 
" style="fill:none;stroke:#757575;stroke-linecap:square;stroke-width:1.5;"/>
    </g>
    <g id="line2d_54"/>
    <g id="text_31">
     <!-- Дата последних данных о покупательной способности -->
     <defs>
      <path d="M 22.796875 8.296875 
L 55.03125 8.296875 
L 55.03125 64.59375 
L 31.34375 64.59375 
L 31.34375 54.25 
Q 31.34375 29.890625 25.875 13.71875 
Q 24.75 10.40625 22.796875 8.296875 
z
M 8.40625 8.296875 
Q 14.9375 11.375 16.796875 17.234375 
Q 21.53125 32.28125 21.53125 59.125 
L 21.53125 72.90625 
L 64.890625 72.90625 
L 64.890625 8.296875 
L 73.1875 8.296875 
L 73.1875 -15.671875 
L 64.890625 -15.671875 
L 64.890625 0 
L 13.234375 0 
L 13.234375 -15.671875 
L 4.9375 -15.671875 
L 4.9375 8.296875 
z
" id="DejaVuSans-1044"/>
      <path d="M 54.890625 54.6875 
L 35.109375 28.078125 
L 55.90625 0 
L 45.3125 0 
L 29.390625 21.484375 
L 13.484375 0 
L 2.875 0 
L 24.125 28.609375 
L 4.6875 54.6875 
L 15.28125 54.6875 
L 29.78125 35.203125 
L 44.28125 54.6875 
z
" id="DejaVuSans-1093"/>
      <path d="M 61.046875 54.6875 
L 70.03125 54.6875 
L 70.03125 0 
L 61.046875 0 
z
M 65.546875 56 
z
M 43.453125 16.21875 
Q 43.453125 20.609375 40.25 22.90625 
Q 37.0625 25.203125 30.90625 25.203125 
L 18.109375 25.203125 
L 18.109375 7.171875 
L 30.90625 7.171875 
Q 37.0625 7.171875 40.25 9.484375 
Q 43.453125 11.8125 43.453125 16.21875 
z
M 9.078125 54.6875 
L 18.109375 54.6875 
L 18.109375 32.375 
L 31.296875 32.375 
Q 41.75 32.375 47.390625 28.390625 
Q 53.03125 24.421875 53.03125 16.21875 
Q 53.03125 8.015625 47.390625 4 
Q 41.75 0 31.296875 0 
L 9.078125 0 
z
" id="DejaVuSans-1099"/>
     </defs>
     <g transform="translate(145 115.415313)scale(0.1 -0.1)">
      <use xlink:href="#DejaVuSans-1044"/>
      <use x="78.125" xlink:href="#DejaVuSans-1072"/>
      <use x="139.404297" xlink:href="#DejaVuSans-1090"/>
      <use x="197.65625" xlink:href="#DejaVuSans-1072"/>
      <use x="258.935547" xlink:href="#DejaVuSans-32"/>
      <use x="290.722656" xlink:href="#DejaVuSans-1087"/>
      <use x="356.103516" xlink:href="#DejaVuSans-1086"/>
      <use x="417.285156" xlink:href="#DejaVuSans-1089"/>
      <use x="472.265625" xlink:href="#DejaVuSans-1083"/>
      <use x="536.181641" xlink:href="#DejaVuSans-1077"/>
      <use x="597.705078" xlink:href="#DejaVuSans-1076"/>
      <use x="666.845703" xlink:href="#DejaVuSans-1085"/>
      <use x="732.226562" xlink:href="#DejaVuSans-1080"/>
      <use x="797.216797" xlink:href="#DejaVuSans-1093"/>
      <use x="856.396484" xlink:href="#DejaVuSans-32"/>
      <use x="888.183594" xlink:href="#DejaVuSans-1076"/>
      <use x="957.324219" xlink:href="#DejaVuSans-1072"/>
      <use x="1018.603516" xlink:href="#DejaVuSans-1085"/>
      <use x="1083.984375" xlink:href="#DejaVuSans-1085"/>
      <use x="1149.365234" xlink:href="#DejaVuSans-1099"/>
      <use x="1228.320312" xlink:href="#DejaVuSans-1093"/>
      <use x="1287.5" xlink:href="#DejaVuSans-32"/>
      <use x="1319.287109" xlink:href="#DejaVuSans-1086"/>
      <use x="1380.46875" xlink:href="#DejaVuSans-32"/>
      <use x="1412.255859" xlink:href="#DejaVuSans-1087"/>
      <use x="1477.636719" xlink:href="#DejaVuSans-1086"/>
      <use x="1538.818359" xlink:href="#DejaVuSans-1082"/>
      <use x="1599.21875" xlink:href="#DejaVuSans-1091"/>
      <use x="1658.398438" xlink:href="#DejaVuSans-1087"/>
      <use x="1723.779297" xlink:href="#DejaVuSans-1072"/>
      <use x="1785.058594" xlink:href="#DejaVuSans-1090"/>
      <use x="1843.310547" xlink:href="#DejaVuSans-1077"/>
      <use x="1904.833984" xlink:href="#DejaVuSans-1083"/>
      <use x="1968.75" xlink:href="#DejaVuSans-1100"/>
      <use x="2027.685547" xlink:href="#DejaVuSans-1085"/>
      <use x="2093.066406" xlink:href="#DejaVuSans-1086"/>
      <use x="2154.248047" xlink:href="#DejaVuSans-1081"/>
      <use x="2219.238281" xlink:href="#DejaVuSans-32"/>
      <use x="2251.025391" xlink:href="#DejaVuSans-1089"/>
      <use x="2306.005859" xlink:href="#DejaVuSans-1087"/>
      <use x="2371.386719" xlink:href="#DejaVuSans-1086"/>
      <use x="2432.568359" xlink:href="#DejaVuSans-1089"/>
      <use x="2487.548828" xlink:href="#DejaVuSans-1086"/>
      <use x="2548.730469" xlink:href="#DejaVuSans-1073"/>
      <use x="2610.400391" xlink:href="#DejaVuSans-1085"/>
      <use x="2675.78125" xlink:href="#DejaVuSans-1086"/>
      <use x="2736.962891" xlink:href="#DejaVuSans-1089"/>
      <use x="2791.943359" xlink:href="#DejaVuSans-1090"/>
      <use x="2850.195312" xlink:href="#DejaVuSans-1080"/>
     </g>
    </g>
    <g id="PathCollection_3">
     <g>
      <use style="fill:#037149;stroke:#037149;stroke-width:1.5;" x="127" xlink:href="#mb8b1bbcbc9" y="127.468438"/>
     </g>
    </g>
    <g id="text_32">
     <!-- Повышение -->
     <defs>
      <path d="M 65.375 72.90625 
L 65.375 0 
L 55.515625 0 
L 55.515625 64.59375 
L 19.671875 64.59375 
L 19.671875 0 
L 9.8125 0 
L 9.8125 72.90625 
z
" id="DejaVuSans-1055"/>
      <path d="M 50.25 7.171875 
L 73.390625 7.171875 
L 73.390625 54.6875 
L 82.421875 54.6875 
L 82.421875 0 
L 9.078125 0 
L 9.078125 54.6875 
L 18.109375 54.6875 
L 18.109375 7.171875 
L 41.21875 7.171875 
L 41.21875 54.6875 
L 50.25 54.6875 
z
" id="DejaVuSans-1096"/>
     </defs>
     <g transform="translate(145 130.093438)scale(0.1 -0.1)">
      <use xlink:href="#DejaVuSans-1055"/>
      <use x="75.195312" xlink:href="#DejaVuSans-1086"/>
      <use x="136.376953" xlink:href="#DejaVuSans-1074"/>
      <use x="195.3125" xlink:href="#DejaVuSans-1099"/>
      <use x="274.267578" xlink:href="#DejaVuSans-1096"/>
      <use x="365.771484" xlink:href="#DejaVuSans-1077"/>
      <use x="427.294922" xlink:href="#DejaVuSans-1085"/>
      <use x="492.675781" xlink:href="#DejaVuSans-1080"/>
      <use x="557.666016" xlink:href="#DejaVuSans-1077"/>
     </g>
    </g>
    <g id="PathCollection_4">
     <defs>
      <path d="M -5 0 
L 0 7.5 
L 5 0 
" id="m22640cec5e" style="stroke:#be0000;stroke-width:1.5;"/>
     </defs>
     <g>
      <use style="fill:#be0000;stroke:#be0000;stroke-width:1.5;" x="127" xlink:href="#m22640cec5e" y="142.146563"/>
     </g>
    </g>
    <g id="text_33">
     <!-- Понижение -->
     <defs>
      <path d="M 40.578125 54.6875 
L 49.515625 54.6875 
L 49.515625 29 
L 73.390625 54.6875 
L 83.84375 54.6875 
L 64.203125 33.640625 
L 86.671875 0 
L 77.046875 0 
L 58.640625 27.640625 
L 49.515625 17.828125 
L 49.515625 0 
L 40.578125 0 
L 40.578125 17.828125 
L 31.453125 27.640625 
L 13.03125 0 
L 3.421875 0 
L 25.875 33.640625 
L 6.25 54.6875 
L 16.703125 54.6875 
L 40.578125 29 
z
" id="DejaVuSans-1078"/>
     </defs>
     <g transform="translate(145 144.771563)scale(0.1 -0.1)">
      <use xlink:href="#DejaVuSans-1055"/>
      <use x="75.195312" xlink:href="#DejaVuSans-1086"/>
      <use x="136.376953" xlink:href="#DejaVuSans-1085"/>
      <use x="201.757812" xlink:href="#DejaVuSans-1080"/>
      <use x="266.748047" xlink:href="#DejaVuSans-1078"/>
      <use x="356.835938" xlink:href="#DejaVuSans-1077"/>
      <use x="418.359375" xlink:href="#DejaVuSans-1085"/>
      <use x="483.740234" xlink:href="#DejaVuSans-1080"/>
      <use x="548.730469" xlink:href="#DejaVuSans-1077"/>
     </g>
    </g>
   </g>
  </g>
 </g>
 <defs>
  <clipPath id="pf3c50ed5e0">
   <rect height="391.68" width="669.6" x="108" y="69.12"/>
  </clipPath>
 </defs>
</svg>
